<?xml version="1.0" encoding="UTF-8" standalone="no"?>
<!-- Created with Inkscape (http://www.inkscape.org/) -->

<svg
   xmlns:dc="http://purl.org/dc/elements/1.1/"
   xmlns:cc="http://creativecommons.org/ns#"
   xmlns:rdf="http://www.w3.org/1999/02/22-rdf-syntax-ns#"
   xmlns:svg="http://www.w3.org/2000/svg"
   xmlns="http://www.w3.org/2000/svg"
   xmlns:sodipodi="http://sodipodi.sourceforge.net/DTD/sodipodi-0.dtd"
   xmlns:inkscape="http://www.inkscape.org/namespaces/inkscape"
   width="19.195mm"
   height="9.4969997mm"
   viewBox="0 0 19.194999 9.4969997"
   version="1.1"
   id="svg1783"
   inkscape:version="0.92.3 (2405546, 2018-03-11)"
   sodipodi:docname="cplusplus-button.svg">
  <defs
     id="defs1777" />
  <sodipodi:namedview
     id="base"
     pagecolor="#ffffff"
     bordercolor="#666666"
     borderopacity="1.0"
     inkscape:pageopacity="0.0"
     inkscape:pageshadow="2"
     inkscape:zoom="3.959798"
     inkscape:cx="21.077995"
     inkscape:cy="4.3564094"
     inkscape:document-units="mm"
     inkscape:current-layer="g1640"
     showgrid="false"
     inkscape:window-width="1366"
     inkscape:window-height="689"
     inkscape:window-x="0"
     inkscape:window-y="0"
     inkscape:window-maximized="1" />
  <metadata
     id="metadata1780">
    <rdf:RDF>
      <cc:Work
         rdf:about="">
        <dc:format>image/svg+xml</dc:format>
        <dc:type
           rdf:resource="http://purl.org/dc/dcmitype/StillImage" />
        <dc:title></dc:title>
      </cc:Work>
    </rdf:RDF>
  </metadata>
  <g
     inkscape:label="Camada 1"
     inkscape:groupmode="layer"
     id="layer1"
     transform="translate(0,-287.503)">
    <g
       id="g2465"
       transform="translate(9.4638653,8.0136306)">
      <rect
         y="279.4895"
         x="-9.4640112"
         height="9.4967346"
         width="19.195292"
         id="rect1396"
         style="font-style:normal;font-variant:normal;font-weight:normal;font-stretch:normal;font-size:medium;line-height:1.25;font-family:coffekan;-inkscape-font-specification:coffekan;letter-spacing:0px;word-spacing:0px;opacity:0.98999999;fill:#ec0e18;fill-opacity:1;stroke:none;stroke-width:0.70860666;stroke-linecap:butt;stroke-linejoin:round;stroke-miterlimit:4;stroke-dasharray:none;stroke-dashoffset:0;stroke-opacity:0.99607843" />
      <g
         transform="matrix(1.4126079,0,0,1.4126079,306.94114,87.211824)"
         id="g1640">
        <g
           aria-label="C++"
           transform="matrix(0.25858291,0,0,0.25858291,-31.016801,-6.7765473)"
           style="font-style:normal;font-variant:normal;font-weight:bold;font-stretch:normal;font-size:12px;line-height:1.25;font-family:'Product Sans';-inkscape-font-specification:'Product Sans Bold';letter-spacing:0px;word-spacing:0px;fill:#ffffff;fill-opacity:1;stroke:none;stroke-width:0.4900631;stroke-miterlimit:4;stroke-dasharray:none;stroke-opacity:1"
           id="flowRoot1412">
          <path
             d="m -713.124,568.51165 q -0.636,0.768 -1.5,1.176 -0.864,0.396 -1.932,0.396 -0.96,0 -1.788,-0.348 -0.816,-0.348 -1.416,-0.948 -0.6,-0.6 -0.948,-1.416 -0.348,-0.828 -0.348,-1.776 0,-0.948 0.348,-1.764 0.348,-0.828 0.948,-1.428 0.6,-0.6 1.416,-0.948 0.828,-0.348 1.788,-0.348 1.032,0 1.812,0.36 0.792,0.36 1.404,1.044 l -1.14,1.104 q -0.384,-0.444 -0.888,-0.708 -0.492,-0.264 -1.176,-0.264 -0.6,0 -1.128,0.216 -0.528,0.204 -0.924,0.588 -0.384,0.384 -0.612,0.936 -0.228,0.54 -0.228,1.212 0,0.672 0.228,1.224 0.228,0.54 0.612,0.924 0.396,0.384 0.924,0.6 0.528,0.204 1.128,0.204 0.72,0 1.272,-0.288 0.564,-0.3 0.996,-0.84 z"
             style=""
             id="path2486" />
          <path
             d="m -708.5835,565.94365 h 2.052 v 1.392 h -2.052 v 2.04 h -1.392 v -2.04 h -2.04 v -1.392 h 2.04 v -2.04 h 1.392 z"
             style=""
             id="path2488" />
          <path
             d="m -701.76319,565.94365 h 2.052 v 1.392 h -2.052 v 2.04 h -1.392 v -2.04 h -2.04 v -1.392 h 2.04 v -2.04 h 1.392 z"
             style=""
             id="path2490" />
        </g>
        <g
           id="g1450"
           transform="matrix(0.02958584,0,0,0.02958584,-226.74055,138.72521)"
           style="font-style:normal;font-variant:normal;font-weight:normal;font-stretch:normal;font-size:medium;line-height:1.25;font-family:coffekan;-inkscape-font-specification:coffekan;letter-spacing:0px;word-spacing:0px;fill:#ec0e18;fill-opacity:1;stroke:none;stroke-width:0.4900631;stroke-miterlimit:4;stroke-dasharray:none;stroke-opacity:1">
          <path
             style="fill:#ffffff;fill-opacity:1;stroke:none;stroke-width:0.20799826"
             d="m 210.48945,-47.672914 c -2.03864,0 -4.07486,0.44542 -5.62126,1.338423 l -53.69019,30.99412 c -3.09323,1.78558 -5.62936,6.1703398 -5.62936,9.7419198 V 56.397939 c 0,1.786 0.63526,3.77496 1.65472,5.54015 1.01909,1.76519 2.42844,3.30919 3.97464,4.20177 l 53.69019,31.00222 c 3.09281,1.786 8.14975,1.786 11.24256,0 l 53.69014,-31.00222 c 1.54666,-0.893 2.9556,-2.43612 3.97469,-4.20177 1.01904,-1.76519 1.65472,-3.75415 1.65472,-5.54015 V -5.5984512 c 0,-1.786 -0.63526,-3.77496 -1.65472,-5.5401498 -1.01951,-1.76565 -2.42845,-3.30877 -3.97469,-4.20177 l -53.69014,-30.99412 c -1.54641,-0.893003 -3.58263,-1.338423 -5.6213,-1.338423 z"
             id="path1416"
             inkscape:connector-curvature="0" />
          <g
             id="g1424"
             style="fill:#ec0e18;fill-opacity:0.99215686;stroke:none"
             transform="matrix(0.42443154,0,0,0.42443154,145.55056,-47.674554)">
            <path
               id="path1422"
               d="m 153,274.175 c -56.243,0 -102,-45.757 -102,-102 0,-56.243 45.757,-102 102,-102 36.292,0 70.139,19.53 88.331,50.968 l -44.143,25.544 C 188.083,130.951 171.15,121.175 153,121.175 c -28.122,0 -51,22.878 -51,51 0,28.121 22.878,51 51,51 18.152,0 35.085,-9.776 44.191,-25.515 l 44.143,25.543 c -18.192,31.441 -52.04,50.972 -88.334,50.972 z"
               inkscape:connector-curvature="0"
               style="fill:#ec0e18;fill-opacity:0.99215686;stroke:none" />
          </g>
          <g
             id="g1428"
             style="fill:#ec0e18;fill-opacity:0.99215686;stroke:none"
             transform="matrix(0.42443154,0,0,0.42443154,145.55056,-47.674554)">
            <polygon
               id="polygon1426"
               points="232.334,155.175 232.334,166.508 221,166.508 221,177.841 232.334,177.841 232.334,189.175 243.666,189.175 243.666,177.841 255,177.841 255,166.508 243.666,166.508 243.666,155.175 "
               style="fill:#ec0e18;fill-opacity:0.99215686;stroke:none" />
          </g>
          <g
             id="g1432"
             style="fill:#ec0e18;fill-opacity:0.99215686;stroke:none"
             transform="matrix(0.42443154,0,0,0.42443154,145.55056,-47.674554)">
            <polygon
               id="polygon1430"
               points="274.834,155.175 274.834,166.508 263.5,166.508 263.5,177.841 274.834,177.841 274.834,189.175 286.166,189.175 286.166,177.841 297.5,177.841 297.5,166.508 286.166,166.508 286.166,155.175 "
               style="fill:#ec0e18;fill-opacity:0.99215686;stroke:none" />
          </g>
        </g>
      </g>
    </g>
  </g>
</svg>
