<?xml version="1.0" encoding="UTF-8" standalone="no"?>
<svg
   xmlns:dc="http://purl.org/dc/elements/1.1/"
   xmlns:cc="http://creativecommons.org/ns#"
   xmlns:rdf="http://www.w3.org/1999/02/22-rdf-syntax-ns#"
   xmlns:svg="http://www.w3.org/2000/svg"
   xmlns="http://www.w3.org/2000/svg"
   xmlns:sodipodi="http://sodipodi.sourceforge.net/DTD/sodipodi-0.dtd"
   xmlns:inkscape="http://www.inkscape.org/namespaces/inkscape"
   id="svg1783"
   version="1.1"
   viewBox="0 0 21.576 9.4969997"
   height="9.4969997mm"
   width="21.576mm"
   sodipodi:docname="css3-button.svg"
   inkscape:version="0.92.3 (2405546, 2018-03-11)">
  <sodipodi:namedview
     pagecolor="#ffffff"
     bordercolor="#666666"
     borderopacity="1"
     objecttolerance="10"
     gridtolerance="10"
     guidetolerance="10"
     inkscape:pageopacity="0"
     inkscape:pageshadow="2"
     inkscape:window-width="1366"
     inkscape:window-height="689"
     id="namedview1480"
     showgrid="false"
     inkscape:zoom="1.6186967"
     inkscape:cx="181.04824"
     inkscape:cy="-45.967149"
     inkscape:window-x="0"
     inkscape:window-y="0"
     inkscape:window-maximized="1"
     inkscape:current-layer="svg1783" />
  <defs
     id="defs1777" />
  <metadata
     id="metadata1780">
    <rdf:RDF>
      <cc:Work
         rdf:about="">
        <dc:format>image/svg+xml</dc:format>
        <dc:type
           rdf:resource="http://purl.org/dc/dcmitype/StillImage" />
        <dc:title />
      </cc:Work>
    </rdf:RDF>
  </metadata>
  <g
     id="g2376"
     transform="translate(-49.622046,-197.0015)">
    <g
       transform="matrix(1.4126079,0,0,1.4126079,378.27434,21.663725)"
       id="g1707">
      <rect
         y="124.12355"
         x="-232.65634"
         height="6.7228384"
         width="15.273724"
         id="rect1519"
         style="font-style:normal;font-variant:normal;font-weight:normal;font-stretch:normal;font-size:medium;line-height:1.25;font-family:coffekan;-inkscape-font-specification:coffekan;letter-spacing:0px;word-spacing:0px;opacity:0.98999999;fill:#264de4;fill-opacity:1;stroke:none;stroke-width:0.53182596;stroke-linecap:butt;stroke-linejoin:round;stroke-miterlimit:4;stroke-dasharray:none;stroke-dashoffset:0;stroke-opacity:0.99607843" />
      <g
         id="g1771"
         transform="translate(-8.7380624,-23.104317)">
        <g
           aria-label="CSS3"
           transform="matrix(0.25858291,0,0,0.25858291,-31.130122,4.4682444)"
           style="font-style:normal;font-variant:normal;font-weight:bold;font-stretch:normal;font-size:12px;line-height:1.25;font-family:'Product Sans';-inkscape-font-specification:'Product Sans Bold';letter-spacing:0px;word-spacing:0px;fill:#ffffff;fill-opacity:1;stroke:none;stroke-width:0.4900631;stroke-miterlimit:4;stroke-dasharray:none;stroke-opacity:1"
           id="flowRoot1626">
          <path
             inkscape:connector-curvature="0"
             d="m -713.124,568.51165 q -0.636,0.768 -1.5,1.176 -0.864,0.396 -1.932,0.396 -0.96,0 -1.788,-0.348 -0.816,-0.348 -1.416,-0.948 -0.6,-0.6 -0.948,-1.416 -0.348,-0.828 -0.348,-1.776 0,-0.948 0.348,-1.764 0.348,-0.828 0.948,-1.428 0.6,-0.6 1.416,-0.948 0.828,-0.348 1.788,-0.348 1.032,0 1.812,0.36 0.792,0.36 1.404,1.044 l -1.14,1.104 q -0.384,-0.444 -0.888,-0.708 -0.492,-0.264 -1.176,-0.264 -0.6,0 -1.128,0.216 -0.528,0.204 -0.924,0.588 -0.384,0.384 -0.612,0.936 -0.228,0.54 -0.228,1.212 0,0.672 0.228,1.224 0.228,0.54 0.612,0.924 0.396,0.384 0.924,0.6 0.528,0.204 1.128,0.204 0.72,0 1.272,-0.288 0.564,-0.3 0.996,-0.84 z"
             id="path2584" />
          <path
             inkscape:connector-curvature="0"
             d="m -709.1955,570.08365 q -0.552,0 -1.056,-0.156 -0.504,-0.156 -0.924,-0.468 -0.42,-0.312 -0.732,-0.756 -0.312,-0.456 -0.492,-1.056 l 1.524,-0.6 q 0.168,0.648 0.588,1.08 0.42,0.42 1.104,0.42 0.252,0 0.48,-0.06 0.24,-0.072 0.42,-0.192 0.192,-0.132 0.3,-0.324 0.108,-0.192 0.108,-0.444 0,-0.24 -0.084,-0.432 -0.084,-0.192 -0.288,-0.36 -0.192,-0.168 -0.516,-0.324 -0.312,-0.156 -0.78,-0.324 l -0.528,-0.192 q -0.348,-0.12 -0.708,-0.324 -0.348,-0.204 -0.636,-0.492 -0.288,-0.288 -0.48,-0.672 -0.18,-0.396 -0.18,-0.888 0,-0.504 0.192,-0.936 0.204,-0.444 0.564,-0.768 0.372,-0.336 0.876,-0.516 0.516,-0.192 1.14,-0.192 0.648,0 1.116,0.18 0.48,0.168 0.804,0.444 0.336,0.264 0.54,0.588 0.204,0.324 0.3,0.612 l -1.428,0.6 q -0.12,-0.36 -0.444,-0.648 -0.312,-0.288 -0.864,-0.288 -0.528,0 -0.876,0.252 -0.348,0.24 -0.348,0.636 0,0.384 0.336,0.66 0.336,0.264 1.068,0.516 l 0.54,0.18 q 0.516,0.18 0.936,0.42 0.432,0.228 0.732,0.552 0.312,0.324 0.468,0.744 0.168,0.408 0.168,0.948 0,0.672 -0.276,1.164 -0.264,0.48 -0.684,0.792 -0.42,0.312 -0.948,0.468 -0.528,0.156 -1.032,0.156 z"
             id="path2586" />
          <path
             inkscape:connector-curvature="0"
             d="m -702.30488,570.08365 q -0.55199,0 -1.05599,-0.156 -0.504,-0.156 -0.92401,-0.468 -0.42,-0.312 -0.732,-0.756 -0.312,-0.456 -0.49199,-1.056 l 1.524,-0.6 q 0.168,0.648 0.58799,1.08 0.42001,0.42 1.10401,0.42 0.25199,0 0.48,-0.06 0.24,-0.072 0.42,-0.192 0.192,-0.132 0.29999,-0.324 0.10801,-0.192 0.10801,-0.444 0,-0.24 -0.084,-0.432 -0.084,-0.192 -0.28799,-0.36 -0.192,-0.168 -0.51601,-0.324 -0.312,-0.156 -0.77999,-0.324 l -0.52801,-0.192 q -0.34799,-0.12 -0.70799,-0.324 -0.34801,-0.204 -0.636,-0.492 -0.288,-0.288 -0.48,-0.672 -0.18001,-0.396 -0.18001,-0.888 0,-0.504 0.192,-0.936 0.20401,-0.444 0.56401,-0.768 0.372,-0.336 0.876,-0.516 0.516,-0.192 1.14,-0.192 0.648,0 1.116,0.18 0.48,0.168 0.80399,0.444 0.336,0.264 0.54001,0.588 0.204,0.324 0.3,0.612 l -1.428,0.6 q -0.12,-0.36 -0.444,-0.648 -0.312,-0.288 -0.864,-0.288 -0.528,0 -0.876,0.252 -0.34801,0.24 -0.34801,0.636 0,0.384 0.336,0.66 0.33601,0.264 1.068,0.516 l 0.54001,0.18 q 0.516,0.18 0.93599,0.42 0.432,0.228 0.73201,0.552 0.31199,0.324 0.468,0.744 0.168,0.408 0.168,0.948 0,0.672 -0.27601,1.164 -0.26399,0.48 -0.684,0.792 -0.41999,0.312 -0.94799,0.468 -0.52801,0.156 -1.03201,0.156 z"
             id="path2588" />
          <path
             inkscape:connector-curvature="0"
             d="m -695.53425,570.08365 q -0.504,0 -0.972,-0.132 -0.456,-0.132 -0.84,-0.396 -0.384,-0.276 -0.684,-0.684 -0.288,-0.408 -0.444,-0.948 l 1.476,-0.588 q 0.156,0.6 0.528,0.912 0.372,0.3 0.936,0.3 0.252,0 0.48,-0.072 0.228,-0.084 0.396,-0.228 0.168,-0.144 0.264,-0.336 0.108,-0.204 0.108,-0.456 0,-0.528 -0.396,-0.828 -0.384,-0.3 -1.068,-0.3 h -0.708 v -1.428 h 0.648 q 0.24,0 0.468,-0.06 0.228,-0.06 0.396,-0.18 0.18,-0.132 0.276,-0.324 0.108,-0.204 0.108,-0.468 0,-0.408 -0.288,-0.66 -0.288,-0.264 -0.78,-0.264 -0.528,0 -0.816,0.288 -0.276,0.276 -0.384,0.624 l -1.44,-0.588 q 0.108,-0.3 0.324,-0.612 0.216,-0.324 0.54,-0.576 0.336,-0.264 0.78,-0.42 0.444,-0.168 1.02,-0.168 0.588,0 1.068,0.168 0.492,0.168 0.84,0.468 0.348,0.288 0.54,0.696 0.192,0.396 0.192,0.864 0,0.36 -0.096,0.648 -0.084,0.288 -0.228,0.516 -0.144,0.228 -0.336,0.396 -0.18,0.156 -0.372,0.252 v 0.096 q 0.576,0.228 0.948,0.732 0.384,0.504 0.384,1.272 0,0.54 -0.204,0.996 -0.204,0.444 -0.588,0.78 -0.372,0.336 -0.9,0.516 -0.528,0.192 -1.176,0.192 z"
             id="path2590" />
        </g>
        <g
           style="stroke:none"
           id="layer1-6"
           transform="matrix(0.27406572,0,0,0.27399209,-321.32123,19.265154)">
          <g
             style="stroke:none"
             id="g3013"
             transform="translate(119,276.3622)">
            <g
               transform="matrix(0.33574719,0,0,0.33574719,162.94645,119.9288)"
               id="g1671">
              <polygon
                 style="fill:#ffffff;fill-opacity:1;stroke:none"
                 points="437.367,100.62 404.321,470.819 255.778,512 107.644,470.877 74.633,100.62 "
                 id="polygon2989"
                 transform="matrix(0.11867233,0,0,0.11867233,227.27717,210.88318)" />
              <path
                 inkscape:connector-curvature="0"
                 style="fill:#264de4;fill-opacity:0.99215686;stroke:none;stroke-width:0.12658381"
                 d="m -837.14648,601.21289 0.52343,5.74805 h 13.8711 0.0195 8.08008 l -0.52344,5.88672 h -7.55664 -13.37891 l 0.51563,5.74804 h 12.86328 7.05859 l -0.66797,7.45508 -6.39062,1.72461 -0.0156,0.004 -0.004,0.002 -0.006,0.002 -6.40235,-1.72851 -0.4082,-4.58594 h -3.11133 -2.6582 l 0.80469,9.02539 11.77539,3.26953 0.006,-0.002 0.006,-0.002 0.0137,-0.004 11.76367,-3.26172 0.0879,-0.9707 1.34961,-15.13282 0.14063,-1.54296 1.0371,-11.63477 h -14.3789 -0.0195 z"
                 transform="matrix(0.93750004,0,0,0.93750004,1028.9688,-331.83098)"
                 id="polygon2993" />
            </g>
          </g>
        </g>
      </g>
    </g>
  </g>
</svg>
