<?xml version="1.0" encoding="UTF-8" standalone="no"?>
<!-- Created with Inkscape (http://www.inkscape.org/) -->

<svg
   xmlns:dc="http://purl.org/dc/elements/1.1/"
   xmlns:cc="http://creativecommons.org/ns#"
   xmlns:rdf="http://www.w3.org/1999/02/22-rdf-syntax-ns#"
   xmlns:svg="http://www.w3.org/2000/svg"
   xmlns="http://www.w3.org/2000/svg"
   xmlns:sodipodi="http://sodipodi.sourceforge.net/DTD/sodipodi-0.dtd"
   xmlns:inkscape="http://www.inkscape.org/namespaces/inkscape"
   width="26.243999mm"
   height="9.4969997mm"
   viewBox="0 0 26.243999 9.4969997"
   version="1.1"
   id="svg1783"
   sodipodi:docname="html5-button.svg"
   inkscape:version="0.92.3 (2405546, 2018-03-11)">
  <defs
     id="defs1777" />
  <sodipodi:namedview
     id="base"
     pagecolor="#ffffff"
     bordercolor="#666666"
     borderopacity="1.0"
     inkscape:pageopacity="0.0"
     inkscape:pageshadow="2"
     inkscape:zoom="1.4"
     inkscape:cx="10.285601"
     inkscape:cy="77.401075"
     inkscape:document-units="mm"
     inkscape:current-layer="g1707"
     showgrid="false"
     inkscape:window-width="1366"
     inkscape:window-height="689"
     inkscape:window-x="0"
     inkscape:window-y="0"
     inkscape:window-maximized="1"
     showguides="false" />
  <metadata
     id="metadata1780">
    <rdf:RDF>
      <cc:Work
         rdf:about="">
        <dc:format>image/svg+xml</dc:format>
        <dc:type
           rdf:resource="http://purl.org/dc/dcmitype/StillImage" />
        <dc:title />
      </cc:Work>
    </rdf:RDF>
  </metadata>
  <g
     inkscape:label="Camada 1"
     inkscape:groupmode="layer"
     id="layer1"
     transform="translate(0,-287.503)">
    <g
       id="g2376"
       transform="translate(-49.622046,90.5015)">
      <rect
         style="font-style:normal;font-variant:normal;font-weight:normal;font-stretch:normal;font-size:medium;line-height:1.25;font-family:coffekan;-inkscape-font-specification:coffekan;letter-spacing:0px;word-spacing:0px;opacity:0.98999999;fill:#e44d26;fill-opacity:1;stroke:none;stroke-width:0.82855469;stroke-linecap:butt;stroke-linejoin:round;stroke-miterlimit:4;stroke-dasharray:none;stroke-dashoffset:0;stroke-opacity:0.99607843"
         id="rect1336"
         width="26.243799"
         height="9.4967346"
         x="49.622147"
         y="197.00163" />
      <g
         transform="matrix(1.4126079,0,0,1.4126079,365.41501,17.057793)"
         id="g1707">
        <g
           id="g1376"
           transform="matrix(0.04057499,0,0,0.04057499,-182.78427,120.08681)"
           style="font-style:normal;font-variant:normal;font-weight:normal;font-stretch:normal;font-size:medium;line-height:1.25;font-family:coffekan;-inkscape-font-specification:coffekan;letter-spacing:0px;word-spacing:0px;fill:#ec0e18;fill-opacity:1;stroke:none;stroke-width:0.4900631;stroke-miterlimit:4;stroke-dasharray:none;stroke-opacity:1">
          <path
             style="fill:#ffffff;fill-opacity:1;stroke:none;stroke-width:0.13185146"
             inkscape:connector-curvature="0"
             d="m -949.42891,307.00539 -8.87864,-99.65611 h 97.6113 l -8.87865,99.6023 -40.00774,11.08486"
             id="path1342" />
          <path
             id="path1346"
             transform="matrix(5.5414647,0,0,5.5414647,3096.8454,-2915.8869)"
             d="m -728.51172,567.28711 0.60352,6.66211 h 4.92187 v 0.004 h 2.71875 l -0.25586,2.86524 -2.45898,0.6582 -2.46094,-0.6582 -0.1543,-1.76172 h -2.21484 l 0.31055,3.46094 4.52539,1.26172 v -0.0117 l 4.50586,-1.25 0.60742,-6.76758 h -5.11328 -0.01 -2.90234 l -0.20508,-2.25781 h 3.10742 0.01 5.3125 l 0.20312,-2.20508 h -5.51562 -0.01 z"
             style="fill:#e44d26;fill-opacity:0.99215686;stroke:none;stroke-width:0.02379361"
             inkscape:connector-curvature="0" />
        </g>
        <g
           aria-label="HTML5"
           transform="matrix(0.25858291,0,0,0.25858291,-30.270278,-15.532621)"
           style="font-style:normal;font-variant:normal;font-weight:bold;font-stretch:normal;font-size:12px;line-height:1.25;font-family:'Product Sans';-inkscape-font-specification:'Product Sans Bold';letter-spacing:0px;word-spacing:0px;fill:#ffffff;fill-opacity:1;stroke:none;stroke-width:0.4900631;stroke-miterlimit:4;stroke-dasharray:none;stroke-opacity:1"
           id="flowRoot1378">
          <path
             d="m -720.636,561.29965 h 1.62 v 3.432 h 3.612 v -3.432 h 1.62 v 8.592 h -1.62 v -3.624 h -3.612 v 3.624 h -1.62 z"
             style=""
             id="path2493" />
          <path
             d="m -710.23387,569.89165 v -7.056 h -2.4 v -1.536 h 6.41999 v 1.536 h -2.39999 v 7.056 z"
             style=""
             id="path2495" />
          <path
             d="m -705.05006,561.29965 h 1.596 l 2.628,4.548 h 0.096 l 2.628,-4.548 h 1.608 v 8.592 h -1.608 v -4.236 l 0.096,-1.44 h -0.096 l -2.184,3.852 h -0.972 l -2.196,-3.852 h -0.096 l 0.096,1.44 v 4.236 h -1.596 z"
             style=""
             id="path2497" />
          <path
             d="m -694.761,561.29965 h 1.62 v 7.056 h 3.636 v 1.536 h -5.256 z"
             style=""
             id="path2499" />
          <path
             d="m -685.83056,570.08365 q -0.468,0 -0.936,-0.132 -0.456,-0.132 -0.852,-0.408 -0.396,-0.276 -0.696,-0.684 -0.288,-0.42 -0.432,-0.996 l 1.428,-0.552 q 0.132,0.6 0.504,0.96 0.384,0.36 0.972,0.36 0.288,0 0.528,-0.096 0.252,-0.108 0.432,-0.288 0.192,-0.18 0.288,-0.42 0.108,-0.252 0.108,-0.552 0,-0.288 -0.108,-0.528 -0.096,-0.252 -0.276,-0.432 -0.18,-0.192 -0.432,-0.288 -0.24,-0.108 -0.54,-0.108 -0.372,0 -0.66,0.168 -0.288,0.156 -0.492,0.396 l -1.524,-0.696 0.48,-4.104 h 4.62 v 1.38 h -3.312 l -0.312,1.92 0.096,0.024 q 0.24,-0.204 0.588,-0.348 0.348,-0.144 0.84,-0.144 0.516,0 0.984,0.204 0.468,0.192 0.828,0.552 0.36,0.36 0.576,0.876 0.216,0.504 0.216,1.128 0,0.612 -0.216,1.128 -0.216,0.516 -0.612,0.888 -0.384,0.372 -0.924,0.588 -0.528,0.204 -1.164,0.204 z"
             style=""
             id="path2501" />
        </g>
      </g>
    </g>
  </g>
</svg>
