<?xml version="1.0" encoding="UTF-8" standalone="no"?>
<svg
   xmlns:dc="http://purl.org/dc/elements/1.1/"
   xmlns:cc="http://creativecommons.org/ns#"
   xmlns:rdf="http://www.w3.org/1999/02/22-rdf-syntax-ns#"
   xmlns:svg="http://www.w3.org/2000/svg"
   xmlns="http://www.w3.org/2000/svg"
   id="svg1783"
   version="1.1"
   viewBox="0 0 37.102001 9.4969997"
   height="9.4969997mm"
   width="37.102001mm">
  <defs
     id="defs1777" />
  <metadata
     id="metadata1780">
    <rdf:RDF>
      <cc:Work
         rdf:about="">
        <dc:format>image/svg+xml</dc:format>
        <dc:type
           rdf:resource="http://purl.org/dc/dcmitype/StillImage" />
        <dc:title></dc:title>
      </cc:Work>
    </rdf:RDF>
  </metadata>
  <g
     transform="translate(0,-287.503)"
     id="layer1">
    <g
       transform="translate(-49.622046,90.5015)"
       id="g2376">
      <g
         id="g1707"
         transform="matrix(1.4126079,0,0,1.4126079,378.27434,21.663725)">
        <g
           transform="translate(-8.7380624,-23.104317)"
           id="g1771">
          <g
             transform="translate(15.639393,6.1932297)"
             id="g2664">
            <rect
               style="font-style:normal;font-variant:normal;font-weight:normal;font-stretch:normal;font-size:medium;line-height:1.25;font-family:coffekan;-inkscape-font-specification:coffekan;letter-spacing:0px;word-spacing:0px;opacity:0.98999999;fill:#ec0e18;fill-opacity:1;stroke:none;stroke-width:0.69740856;stroke-linecap:butt;stroke-linejoin:round;stroke-miterlimit:4;stroke-dasharray:none;stroke-dashoffset:0;stroke-opacity:0.99607843"
               id="rect1709"
               width="26.265184"
               height="6.7228384"
               x="-239.55789"
               y="141.03464" />
            <g
               id="g1760"
               transform="translate(-33.185188,-6.0909129)">
              <g
                 id="flowRoot1737"
                 style="font-style:normal;font-variant:normal;font-weight:bold;font-stretch:normal;font-size:12px;line-height:1.25;font-family:'Product Sans';-inkscape-font-specification:'Product Sans Bold';letter-spacing:0px;word-spacing:0px;fill:#ffffff;fill-opacity:1;stroke:none;stroke-width:0.4900631;stroke-miterlimit:4;stroke-dasharray:none;stroke-opacity:1"
                 transform="matrix(0.25858291,0,0,0.25858291,-13.321817,4.2336096)"
                 aria-label="JAVASCRIPT">
                <path
                   id="path2666"
                   style=""
                   d="m -718.368,570.08365 q -1.02,0 -1.788,-0.552 -0.756,-0.552 -1.056,-1.524 l 1.488,-0.612 q 0.156,0.576 0.504,0.864 0.348,0.288 0.852,0.288 0.564,0 0.876,-0.36 0.312,-0.36 0.312,-1.008 v -5.88 h 1.62 v 5.868 q 0,0.72 -0.228,1.272 -0.216,0.54 -0.6,0.912 -0.372,0.36 -0.888,0.54 -0.504,0.192 -1.092,0.192 z" />
                <path
                   id="path2668"
                   style=""
                   d="m -711.58894,561.29965 h 1.848 l 3.228,8.592 h -1.788 l -0.708,-2.052 h -3.312 l -0.708,2.052 h -1.788 z m 2.052,5.052 -0.768,-2.148 -0.312,-1.044 h -0.096 l -0.312,1.044 -0.768,2.148 z" />
                <path
                   id="path2670"
                   style=""
                   d="m -707.05912,561.29965 h 1.75199 l 1.77601,5.172 0.312,1.104 h 0.096 l 0.336,-1.104 1.848,-5.172 h 1.75199 l -3.13199,8.592 h -1.70401 z" />
                <path
                   id="path2672"
                   style=""
                   d="m -696.51863,561.29965 h 1.84801 l 3.22799,8.592 h -1.788 l -0.70799,-2.052 h -3.31201 l -0.70799,2.052 h -1.788 z m 2.052,5.052 -0.768,-2.148 -0.31199,-1.044 h -0.096 l -0.312,1.044 -0.768,2.148 z" />
                <path
                   id="path2674"
                   style=""
                   d="m -687.79706,570.08365 q -0.552,0 -1.056,-0.156 -0.504,-0.156 -0.924,-0.468 -0.42,-0.312 -0.732,-0.756 -0.312,-0.456 -0.492,-1.056 l 1.524,-0.6 q 0.168,0.648 0.588,1.08 0.42,0.42 1.104,0.42 0.252,0 0.48,-0.06 0.24,-0.072 0.42,-0.192 0.192,-0.132 0.3,-0.324 0.108,-0.192 0.108,-0.444 0,-0.24 -0.084,-0.432 -0.084,-0.192 -0.288,-0.36 -0.192,-0.168 -0.516,-0.324 -0.312,-0.156 -0.78,-0.324 l -0.528,-0.192 q -0.348,-0.12 -0.708,-0.324 -0.348,-0.204 -0.636,-0.492 -0.288,-0.288 -0.48,-0.672 -0.18,-0.396 -0.18,-0.888 0,-0.504 0.192,-0.936 0.204,-0.444 0.564,-0.768 0.372,-0.336 0.876,-0.516 0.516,-0.192 1.14,-0.192 0.648,0 1.116,0.18 0.48,0.168 0.804,0.444 0.336,0.264 0.54,0.588 0.204,0.324 0.3,0.612 l -1.428,0.6 q -0.12,-0.36 -0.444,-0.648 -0.312,-0.288 -0.864,-0.288 -0.528,0 -0.876,0.252 -0.348,0.24 -0.348,0.636 0,0.384 0.336,0.66 0.336,0.264 1.068,0.516 l 0.54,0.18 q 0.516,0.18 0.936,0.42 0.432,0.228 0.732,0.552 0.312,0.324 0.468,0.744 0.168,0.408 0.168,0.948 0,0.672 -0.276,1.164 -0.264,0.48 -0.684,0.792 -0.42,0.312 -0.948,0.468 -0.528,0.156 -1.032,0.156 z" />
                <path
                   id="path2676"
                   style=""
                   d="m -676.02244,568.51165 q -0.636,0.768 -1.5,1.176 -0.864,0.396 -1.932,0.396 -0.96,0 -1.788,-0.348 -0.816,-0.348 -1.416,-0.948 -0.6,-0.6 -0.948,-1.416 -0.348,-0.828 -0.348,-1.776 0,-0.948 0.348,-1.764 0.348,-0.828 0.948,-1.428 0.6,-0.6 1.416,-0.948 0.828,-0.348 1.788,-0.348 1.032,0 1.812,0.36 0.792,0.36 1.404,1.044 l -1.14,1.104 q -0.384,-0.444 -0.888,-0.708 -0.492,-0.264 -1.176,-0.264 -0.6,0 -1.128,0.216 -0.528,0.204 -0.924,0.588 -0.384,0.384 -0.612,0.936 -0.228,0.54 -0.228,1.212 0,0.672 0.228,1.224 0.228,0.54 0.612,0.924 0.396,0.384 0.924,0.6 0.528,0.204 1.128,0.204 0.72,0 1.272,-0.288 0.564,-0.3 0.996,-0.84 z" />
                <path
                   id="path2678"
                   style=""
                   d="m -674.72194,561.29965 h 3.132 q 0.648,0 1.176,0.204 0.528,0.204 0.9,0.564 0.384,0.36 0.588,0.864 0.204,0.492 0.204,1.08 0,0.432 -0.144,0.816 -0.144,0.372 -0.396,0.684 -0.252,0.3 -0.588,0.54 -0.336,0.228 -0.708,0.36 l -0.012,0.084 2.304,3.3 v 0.096 h -1.86 l -2.22,-3.228 h -0.756 v 3.228 h -1.62 z m 3.12,3.876 q 0.552,0 0.9,-0.336 0.36,-0.336 0.36,-0.852 0,-0.228 -0.084,-0.444 -0.072,-0.216 -0.228,-0.384 -0.156,-0.168 -0.396,-0.264 -0.228,-0.108 -0.528,-0.108 h -1.524 v 2.388 z" />
                <path
                   id="path2680"
                   style=""
                   d="m -667.29225,561.29965 h 1.62 v 8.592 h -1.62 z" />
                <path
                   id="path2682"
                   style=""
                   d="m -663.94069,569.89165 v -8.592 h 3.024 q 0.612,0 1.14,0.204 0.54,0.192 0.936,0.552 0.396,0.36 0.624,0.864 0.228,0.492 0.228,1.092 0,0.612 -0.228,1.116 -0.228,0.492 -0.624,0.852 -0.396,0.36 -0.936,0.564 -0.528,0.192 -1.14,0.192 h -1.404 v 3.156 z m 3.048,-4.692 q 0.636,0 0.96,-0.36 0.324,-0.36 0.324,-0.828 0,-0.228 -0.084,-0.444 -0.072,-0.216 -0.24,-0.372 -0.156,-0.168 -0.396,-0.264 -0.24,-0.096 -0.564,-0.096 h -1.428 v 2.364 z" />
                <path
                   id="path2684"
                   style=""
                   d="m -655.01512,569.89165 v -7.056 h -2.4 v -1.536 h 6.41999 v 1.536 h -2.39999 v 7.056 z" />
              </g>
              <g
                 transform="matrix(0.00682977,0,0,0.00682977,-204.82222,148.3356)"
                 id="g1725">
                <g
                   id="g1729">
                  <rect
                     id="rect1711"
                     height="630"
                     width="630"
                     x="0"
                     y="0"
                     style="fill:#ffffff;fill-opacity:1" />
                  <path
                     id="path1713"
                     d="m 423.2,492.19 c 12.69,20.72 29.2,35.95 58.4,35.95 24.53,0 40.2,-12.26 40.2,-29.2 0,-20.3 -16.1,-27.49 -43.1,-39.3 l -14.8,-6.35 c -42.72,-18.2 -71.1,-41 -71.1,-89.2 0,-44.4 33.83,-78.2 86.7,-78.2 37.64,0 64.7,13.1 84.2,47.4 l -46.1,29.6 c -10.15,-18.2 -21.1,-25.37 -38.1,-25.37 -17.34,0 -28.33,11 -28.33,25.37 0,17.76 11,24.95 36.4,35.95 l 14.8,6.34 c 50.3,21.57 78.7,43.56 78.7,93 0,53.3 -41.87,82.5 -98.1,82.5 -54.98,0 -90.5,-26.2 -107.88,-60.54 z m -209.13,5.13 c 9.3,16.5 17.76,30.45 38.1,30.45 19.45,0 31.72,-7.61 31.72,-37.2 v -201.3 h 59.2 v 202.1 c 0,61.3 -35.94,89.2 -88.4,89.2 -47.4,0 -74.85,-24.53 -88.81,-54.075 z"
                     style="fill:#ec0e18;fill-opacity:0.99215686" />
                </g>
              </g>
            </g>
          </g>
        </g>
      </g>
    </g>
  </g>
</svg>
