<?xml version="1.0" encoding="UTF-8" standalone="no"?>
<svg
   xmlns:dc="http://purl.org/dc/elements/1.1/"
   xmlns:cc="http://creativecommons.org/ns#"
   xmlns:rdf="http://www.w3.org/1999/02/22-rdf-syntax-ns#"
   xmlns:svg="http://www.w3.org/2000/svg"
   xmlns="http://www.w3.org/2000/svg"
   xmlns:sodipodi="http://sodipodi.sourceforge.net/DTD/sodipodi-0.dtd"
   xmlns:inkscape="http://www.inkscape.org/namespaces/inkscape"
   id="svg1783"
   version="1.1"
   viewBox="0 0 161.442 48.166"
   height="48.166mm"
   width="161.442mm"
   sodipodi:docname="logo.svg"
   inkscape:version="0.92.3 (2405546, 2018-03-11)">
  <sodipodi:namedview
     pagecolor="#ffffff"
     bordercolor="#666666"
     borderopacity="1"
     objecttolerance="10"
     gridtolerance="10"
     guidetolerance="10"
     inkscape:pageopacity="0"
     inkscape:pageshadow="2"
     inkscape:window-width="1366"
     inkscape:window-height="689"
     id="namedview830"
     showgrid="false"
     inkscape:zoom="1.0696277"
     inkscape:cx="311.399"
     inkscape:cy="64.133123"
     inkscape:window-x="0"
     inkscape:window-y="0"
     inkscape:window-maximized="1"
     inkscape:current-layer="g1334" />
  <defs
     id="defs1777" />
  <metadata
     id="metadata1780">
    <rdf:RDF>
      <cc:Work
         rdf:about="">
        <dc:format>image/svg+xml</dc:format>
        <dc:type
           rdf:resource="http://purl.org/dc/dcmitype/StillImage" />
        <dc:title />
      </cc:Work>
    </rdf:RDF>
  </metadata>
  <g
     transform="translate(0,-248.834)"
     id="layer1">
    <g
       transform="translate(-49.622046,90.5015)"
       id="g2376">
      <g
         id="g1707"
         transform="matrix(1.4126079,0,0,1.4126079,378.27434,21.663725)">
        <g
           transform="translate(-8.7380624,-23.104317)"
           id="g1771">
          <g
             transform="translate(15.639393,6.1932297)"
             id="g2664">
            <g
               id="g1760"
               transform="translate(-33.185188,-6.0909129)">
              <g
                 id="g1334"
                 transform="matrix(0.4333588,0,0,0.4333588,-88.959031,-74.661569)"
                 style="font-style:normal;font-variant:normal;font-weight:normal;font-stretch:normal;font-size:medium;line-height:1.25;font-family:coffekan;-inkscape-font-specification:coffekan;letter-spacing:0px;word-spacing:0px;fill:#ec0e18;fill-opacity:1;stroke:#000000;stroke-width:0.4900631;stroke-miterlimit:4;stroke-dasharray:none;stroke-opacity:1">
                <path
                   style="fill:#ec0e18;fill-opacity:1;stroke:none;stroke-width:0.2118094"
                   d="m -154.39553,489.37791 c -0.85052,0.0582 -1.73726,0.44738 -2.51812,1.22824 -1.71876,1.71877 -1.70046,3.55273 0.0532,5.30638 1.13835,1.13832 1.53347,1.28181 2.9174,1.06026 2.04579,-0.32751 3.11326,-1.63267 3.11326,-3.80715 0,-2.44044 -1.69458,-3.91591 -3.56572,-3.78773 z m -92.87923,0.80954 0.13929,0.97754 c 0.11755,0.82458 0.49942,1.02987 2.43792,1.30759 4.70931,0.67471 4.92537,1.26495 4.7467,12.96035 l -0.13,8.52598 -9.4267,-11.8756 -9.42755,-11.87644 -5.48364,0.008 c -5.65378,0.007 -7.24151,0.35422 -6.23157,1.36416 0.29838,0.29837 1.34646,0.84106 2.32902,1.2063 0.98258,0.36524 2.19547,1.21367 2.6954,1.88501 0.87516,1.17521 0.90916,1.68971 0.90916,13.83067 0,11.9306 -0.0476,12.69151 -0.88552,14.12274 -0.66083,1.12871 -1.31916,1.61746 -2.59325,1.92553 -1.6086,0.38894 -2.33409,0.8955 -2.34929,1.64019 -0.004,0.17828 3.60517,0.32416 8.02033,0.32416 7.39384,0 8.01608,-0.0597 7.88274,-0.75215 -0.10342,-0.53699 -0.74371,-0.83748 -2.24208,-1.05181 -2.25676,-0.32282 -3.78417,-1.43283 -4.5652,-3.31838 -0.31181,-0.75266 -0.43497,-4.67477 -0.35877,-11.41132 l 0.1165,-10.26495 9.3828,11.77852 c 5.16042,6.47811 9.92553,12.48234 10.58911,13.34275 0.66359,0.86039 1.59528,1.74764 2.07072,1.97195 0.53677,0.25279 1.17684,0.2547 1.68916,0.004 0.79608,-0.38921 0.81543,-0.92549 0.55376,-15.28768 -0.23503,-12.90046 -0.18092,-15.10892 0.40266,-16.56743 0.67894,-1.69683 1.7566,-2.33882 4.48586,-2.6726 0.74834,-0.0915 1.08052,-0.39828 1.08052,-0.99695 0,-0.82868 -0.32733,-0.86871 -7.91904,-0.98176 z m 206.298487,1.29916 c -0.50049,0.0295 -1.01828,0.46071 -1.18267,1.2063 -1.30014,5.89673 -2.54786,8.09914 -5.37644,9.49086 -1.06779,0.52538 -2.1946,1.17487 -2.50377,1.44266 -0.91677,0.7941 0.22244,1.70858 2.12813,1.70858 h 1.67565 v 8.66105 c 0,7.81796 0.0841,8.82673 0.86695,10.36118 0.60932,1.19436 1.28422,1.82822 2.26909,2.13065 1.89196,0.581 7.46333,0.30154 8.33014,-0.41785 1.49742,-1.24275 2.01608,-3.07882 2.08254,-7.37118 0.0704,-4.54471 -0.36433,-5.79726 -1.64442,-4.73488 -0.49788,0.4132 -0.66688,1.4185 -0.66688,3.97176 0,3.90991 -0.75488,6.18551 -2.20325,6.64521 -0.73925,0.23463 -1.17993,0.0716 -1.76767,-0.65423 -0.69888,-0.86309 -0.78337,-1.91578 -0.78337,-9.77956 v -8.81215 h 2.40584 c 2.80135,0 4.07728,-0.54949 4.07728,-1.75501 0,-1.09306 -1.55764,-1.70266 -4.34994,-1.70266 h -2.13318 v -4.50273 c 0,-2.47658 -0.11825,-4.81048 -0.26254,-5.18651 -0.19349,-0.50422 -0.57223,-0.72442 -0.96149,-0.70149 z m -49.498,10.12229 c -4.2356,0.0389 -8.6836,2.89857 -10.950397,7.52904 -1.40603,3.95876 -2.19272,8.31944 -0.26929,12.00222 1.10385,2.06905 4.021107,4.83013 5.419487,5.1291 3.53985,1.18705 9.71406,0.63227 11.87391,-0.87206 2.85738,-2.17944 4.6969,-8.17651 2.50799,-8.17651 -0.66536,0 -1.03626,0.53738 -1.61149,2.33325 -1.18135,3.68815 -3.09347,5.2304 -6.48313,5.2304 -3.38833,0 -4.95825,-1.98117 -5.17299,-6.52618 l -0.13085,-2.7663 7.13144,-0.21611 7.13144,-0.2161 0.13253,-2.08254 c 0.25194,-3.94671 -2.30542,-8.79334 -5.50306,-10.42872 -1.2761,-0.65264 -2.66372,-0.95252 -4.07559,-0.93954 z m -128.633497,0.027 c -3.45465,0.05 -7.15582,1.34931 -9.09073,3.55306 -1.0684,1.21684 -1.29324,1.84953 -1.29324,3.63832 0,2.61554 1.33109,4.28747 3.41376,4.28747 3.28889,0 4.90205,-4.24233 2.42358,-6.37423 -1.42671,-1.2272 -0.96725,-2.03523 1.54396,-2.71144 3.47658,-0.93614 5.15274,0.47268 5.15274,4.33138 0,3.38041 -0.65342,4.13809 -3.88397,4.50357 -4.84833,0.54853 -7.80635,2.16164 -9.33722,5.09196 -1.66453,3.18617 0.19914,8.11462 3.2804,8.6754 3.70618,0.67452 7.73421,0.0486 9.32793,-1.44857 l 1.03325,-0.96994 1.06533,1.15059 c 0.98439,1.06217 1.33278,1.14974 4.55084,1.14974 3.46578,0 3.48937,-0.008 4.34995,-1.40468 0.71871,-1.16676 0.84616,-2.02695 0.75045,-5.07845 -0.105,-3.34722 -0.19249,-3.67377 -0.98006,-3.67377 -0.77635,0 -0.88853,0.36646 -1.09825,3.59274 -0.16076,2.47305 -0.42835,3.71244 -0.8602,3.97935 -0.34501,0.2132 -0.75901,0.25025 -0.92013,0.0819 -0.16112,-0.16839 -0.35783,-4.09905 -0.43643,-8.73449 -0.16441,-9.69791 -0.45218,-10.63781 -3.83838,-12.52476 -1.24648,-0.69461 -2.81173,-1.05109 -4.46644,-1.10838 -0.22751,-0.008 -0.45683,-0.0101 -0.68714,-0.007 z m 21.46354,0.0481 c -4.04699,-0.0352 -7.64384,3.10006 -7.64384,7.65988 0,2.40176 1.16998,4.99744 2.84734,6.31682 1.08067,0.85006 3.32735,1.6566 7.36105,2.64137 0.97925,0.23908 2.29208,0.83684 2.91741,1.32871 2.38724,1.87781 0.7752,6.01799 -2.34339,6.01799 -3.27613,0 -5.72123,-2.4121 -7.54254,-7.44209 -0.72661,-2.0067 -1.19245,-2.7148 -1.78708,-2.7148 -0.74285,0 -0.80448,0.42681 -0.80448,5.5824 0,6.14837 0.26201,6.72846 2.17708,4.81339 1.11725,-1.11725 1.12621,-1.11779 2.28176,-0.30727 0.63795,0.44747 1.93785,1.01426 2.8887,1.26032 v 8.5e-4 c 2.36206,0.61076 2.61214,0.60998 5.5554,0.003 2.22349,-0.45925 2.74822,-0.76383 3.78605,-2.1965 2.23681,-3.08783 2.03244,-7.52389 -0.47949,-10.38482 -1.05979,-1.20703 -1.16788,-1.53071 -0.68207,-2.04708 0.85901,-0.91304 1.22061,-8.73298 0.45162,-9.76521 -0.55898,-0.75031 -0.64575,-0.73197 -1.76598,0.37481 l -1.1776,1.16324 -1.95929,-1.14805 c -1.33245,-0.78088 -2.73165,-1.14475 -4.08065,-1.15649 z m 178.637987,0.0236 c -6.62149,0.0481 -12.12577,5.64867 -12.19469,12.40827 -0.0346,3.3927 0.59548,5.65175 2.28851,8.20774 1.52619,2.30413 3.33614,3.73903 5.30974,4.20981 1.84401,0.43982 5.71775,0.45049 7.93677,0.0211 2.69051,-0.52063 5.41874,-2.96434 7.0816305,-6.34215 1.19218,-2.42166 1.38514,-3.26893 1.36754,-5.99942 -0.0475,-7.37348 -4.9324805,-12.55515 -11.7895005,-12.50535 z m -153.801197,0.003 c -4.65378,0.018 -8.86376,2.75793 -11.17242,7.27157 -3.4158,6.67817 0.0582,16.33808 6.31514,17.561 v -8.5e-4 c 2.26192,0.44253 6.05632,0.43988 7.97391,-0.005 2.93438,-0.68086 5.37487,-3.82588 6.05429,-7.80339 0.59211,-3.46629 -1.54771,-3.41512 -2.29189,0.0549 -0.63328,2.95294 -2.18446,4.96526 -4.32039,5.6052 -5.42415,1.62511 -8.18343,-2.5086 -7.71053,-11.55313 0.15122,-2.8921 0.4667,-4.48443 1.17844,-5.95469 1.528,-3.15641 4.39197,-4.16735 6.68826,-2.3611 l 1.16831,0.91844 -1.18182,1.23331 c -2.73787,2.85772 -0.14332,7.39115 3.44838,6.0256 2.41909,-0.91974 3.25029,-4.36892 1.69507,-7.03183 -0.45134,-0.77279 -1.75406,-1.98212 -2.89546,-2.6878 -1.76449,-1.0909 -2.50564,-1.28114 -4.94929,-1.27214 z m 111.189837,0.50734 c -2.28278,0.0205 -4.32898,0.78987 -5.34014,2.00824 -0.81965,0.98761 -1.32026,0.82965 -1.32026,-0.41701 0,-0.60175 -0.29303,-1.20659 -0.65085,-1.3439 -0.35781,-0.13731 -2.83761,-0.0826 -5.51065,0.12156 -4.49061,0.34304 -4.86941,0.44157 -4.99066,1.29156 -0.11256,0.78903 0.14807,0.96175 1.8352,1.21474 1.26652,0.18993 2.12176,0.58366 2.40078,1.105 0.67012,1.25215 0.56916,17.50366 -0.11227,18.06919 -0.30016,0.2491 -1.31985,0.51634 -2.26572,0.59344 -1.22518,0.0999 -1.76094,0.35764 -1.86306,0.8965 -0.13427,0.70855 0.80114,0.75636 14.79892,0.75636 12.90898,0 14.94327,-0.0869 14.94327,-0.63987 0,-0.62179 -0.79935,-0.93506 -3.02546,-1.18435 l -1.08052,-0.12072 0.13675,-7.83209 c 0.11296,-6.45537 0.0147,-8.12592 -0.56051,-9.50267 -1.40623,-3.36556 -3.88558,-5.04758 -7.39482,-5.01598 z m -67.191527,0.0262 c -2.27136,0.0176 -4.04188,0.74796 -5.36884,2.21422 l -0.85091,0.93954 -0.4913,-1.43591 -0.4913,-1.43591 -4.49176,0.10974 c -5.55092,0.13535 -6.53823,0.33854 -6.35144,1.30845 0.096,0.49847 0.84399,0.88793 2.2978,1.19617 l 2.15513,0.45669 0.1165,9.23929 c 0.0643,5.08153 -0.0542,9.41089 -0.26422,9.62087 -0.47428,0.47427 -6.41758,0.59614 -7.74008,0.15869 l -0.97247,-0.32162 v -10.78917 c 0,-9.20879 -0.0956,-10.82682 -0.65084,-11.03989 -0.35782,-0.13731 -2.83761,-0.0826 -5.51066,0.12156 -4.50609,0.34422 -4.86962,0.43907 -4.99235,1.30001 -0.11568,0.81167 0.13747,0.9654 2.01163,1.22318 1.70109,0.23395 2.19619,0.4886 2.39572,1.23247 0.13832,0.51567 0.25346,4.65779 0.25746,9.20468 0.004,6.13669 -0.1343,8.38395 -0.53941,8.72015 -0.30016,0.2491 -1.31985,0.51634 -2.26572,0.59344 -1.22518,0.0999 -1.76093,0.35764 -1.86306,0.8965 -0.13536,0.71435 1.49062,0.75636 29.27791,0.75636 16.58962,0 29.42225,-0.16515 29.42225,-0.37902 0,-0.65302 -1.02864,-1.26773 -2.37715,-1.41988 l -1.29662,-0.14604 -0.21611,-8.89572 c -0.3369,-3.66102 0.86465,-7.47877 -1.42663,-10.48106 -1.58107,-2.07093 -3.39204,-2.9676 -5.95215,-2.94779 -2.47708,0.0192 -4.36027,0.90711 -5.66429,2.67091 l -0.95728,1.29494 -1.53636,-1.46715 c -2.11853,-2.02276 -3.24064,-2.51751 -5.66345,-2.4987 z m 109.720157,1.39411 c 0.81546,-0.003 1.63437,0.26058 2.34085,0.8163 1.53427,1.20686 2.25793,4.25106 2.26403,9.52463 0.006,5.23009 -0.70468,8.56259 -2.16189,10.13495 -1.36161,1.46919 -3.9714,1.53333 -5.27176,0.13 -2.46924,-2.66478 -2.91807,-14.7107 -0.68883,-18.48451 0.80852,-1.36871 2.1585,-2.11568 3.5176,-2.12137 z m -71.54147,0.0785 c 1.80688,0.0209 2.87754,2.01292 3.20949,5.97241 l 0.25156,2.99338 h -3.92787 c -2.15987,0 -4.02983,-0.16679 -4.15578,-0.37058 -0.39222,-0.63464 0.52869,-5.19181 1.31942,-6.5304 0.41396,-0.70079 1.28448,-1.49492 1.9348,-1.76429 0.49532,-0.20516 0.95141,-0.30534 1.36838,-0.30052 z m -106.940347,0.10552 c 1.89436,0 2.37423,0.19275 3.71345,1.49078 1.31124,1.27091 3.26435,5.17253 3.26435,6.52111 0,0.50539 0.22293,0.54138 -4.53818,-0.72766 -2.13944,-0.57025 -4.37612,-1.39183 -4.9704,-1.82591 -1.39956,-1.02231 -1.62195,-3.01549 -0.49215,-4.41072 0.69409,-0.85716 1.24256,-1.0476 3.02293,-1.0476 z m 134.007407,0.69221 c 0.52564,-0.0112 1.06203,0.20147 1.67227,0.62889 0.94192,0.65977 0.96065,0.85298 0.96065,9.9543 0,7.04703 -0.13006,9.32213 -0.54026,9.45034 -1.27108,0.3973 -3.67527,0.53284 -5.07845,0.28617 l -1.51273,-0.26591 0.0321,-6.26702 c 0.0385,-7.56675 0.66588,-10.9207 2.35942,-12.61424 0.77348,-0.77347 1.43118,-1.15819 2.10702,-1.17253 z m -66.941657,0.38831 c 1.00564,0 1.4046,0.25557 1.72883,1.10838 0.65697,1.72792 0.55035,18.32763 -0.11902,18.53684 -1.10854,0.34644 -3.61279,0.52118 -5.02105,0.35033 l -1.45533,-0.17643 0.21273,-6.77605 c 0.30119,-9.55904 1.54482,-13.04307 4.65384,-13.04307 z m 13.83067,0 c 1.00563,0 1.40459,0.25557 1.72883,1.10838 0.65695,1.72792 0.55034,18.32763 -0.11902,18.53684 -1.10855,0.34644 -3.6128,0.52118 -5.02105,0.35033 l -1.45533,-0.17643 0.21273,-6.77605 c 0.30119,-9.55904 1.54482,-13.04307 4.65384,-13.04307 z m -100.95444,9.72131 c 0.15045,2.9e-4 0.25725,0.0147 0.30728,0.0456 0.49848,0.30805 0.45892,4.38598 -0.0599,6.19527 -0.23303,0.81253 -0.95031,2.02716 -1.59377,2.69877 -1.31387,1.37138 -3.16772,1.61572 -4.06377,0.53603 -0.31253,-0.37657 -0.64528,-1.78665 -0.73948,-3.13351 -0.2371,-3.39044 1.00332,-5.25611 3.98696,-5.99773 0.8688,-0.21596 1.71137,-0.34531 2.16272,-0.34442 z"
                   id="path1178" />
                <path
                   style="fill:#ec0e18;fill-opacity:1;stroke:none;stroke-width:0.2118094"
                   d="m -179.76827,448.62165 c -0.57359,-0.0496 -1.18479,0.5436 -2.53247,2.35773 l -0.78929,1.06195 -2.32565,-1.60221 c -2.30415,-1.58697 -2.36688,-1.60199 -6.64436,-1.59799 -5.29915,0.005 -7.74412,0.9737 -11.14119,4.41325 -5.15893,5.22351 -6.99168,12.13034 -5.24981,19.78874 1.57083,6.90643 6.98325,11.90406 14.01132,12.93923 8.60763,1.26785 14.66173,-3.10808 16.46613,-11.90092 0.59519,-2.90035 0.34831,-4.20432 -0.75637,-3.99033 -0.51733,0.10021 -0.979,1.19448 -1.625,3.8502 -1.07141,4.40464 -2.58358,6.87474 -5.10124,8.33436 -3.82486,2.21749 -8.239,1.86821 -10.88963,-0.86104 -2.33591,-2.40523 -3.32411,-5.84373 -3.58682,-12.48002 -0.36788,-9.29289 1.20355,-15.6143 4.36007,-17.53905 1.66071,-1.01265 5.80591,-1.12006 7.59151,-0.19669 2.55927,1.32345 4.78512,4.8989 6.33117,10.17209 0.74259,2.53276 1.12634,3.24157 1.75501,3.24157 0.75077,0 0.81208,-0.52457 0.92182,-7.838 0.10116,-6.74143 0.0247,-7.87341 -0.54955,-8.09378 -0.0824,-0.0316 -0.16371,-0.052 -0.24565,-0.0591 z m 58.05353,0.0523 c -1.06102,3.6e-4 -2.45091,0.0255 -3.91351,0.0751 -5.1431,0.1745 -5.31421,0.211 -5.1865,1.10669 0.10717,0.75175 0.47128,0.9512 1.93481,1.05773 0.99177,0.0722 2.01573,0.38657 2.275,0.69896 0.32591,0.39263 0.43642,5.35571 0.35792,16.07613 l -0.11396,15.50885 -1.80312,0.13169 c -2.26565,0.16492 -3.30388,1.19344 -2.09604,2.07663 v -8.5e-4 c 0.61693,0.45111 2.4568,0.60189 7.35683,0.60189 4.90003,0 6.73989,-0.15078 7.35682,-0.60189 1.15961,-0.84792 0.20511,-1.90144 -1.87909,-2.07494 l -1.58786,-0.13253 -0.11312,-17.13554 c -0.0868,-13.15838 -0.23723,-17.17739 -0.64831,-17.31451 -0.14721,-0.0491 -0.87885,-0.0738 -1.93987,-0.0734 z m 41.389022,11.56073 c -0.551493,0.0161 -1.105956,0.10253 -1.678183,0.25663 -2.270641,0.61142 -4.302847,2.35241 -5.294553,4.53565 -1.077781,2.37274 -1.010279,4.01833 0.26675,6.53546 1.270451,2.50417 1.237335,2.34254 0.480327,2.34254 -0.951049,0 -1.126949,1.0187 -1.126949,6.53209 0,4.39258 0.105804,5.20538 0.709937,5.43721 0.481739,0.18486 1.088335,-0.18921 1.883313,-1.16325 l 1.171691,-1.43675 1.547341,1.18013 c 0.850859,0.64898 2.094599,1.34396 2.76377,1.54481 4.058899,1.21832 8.380569,-0.60876 9.913781,-4.19209 1.282518,-2.99744 0.552025,-7.07037 -1.712795,-9.54572 -0.774483,-0.84648 -0.816122,-1.05358 -0.274353,-1.3878 0.483201,-0.29809 0.672417,-1.54476 0.783378,-5.16286 0.125941,-4.10712 0.04789,-4.8072 -0.562208,-5.04131 -0.434832,-0.16687 -1.127887,0.12235 -1.794676,0.74877 l -1.086434,1.02058 -1.592922,-0.91169 c -1.390682,-0.79608 -2.621797,-1.21597 -3.84598,-1.2848 -0.183628,-0.0103 -0.367403,-0.013 -0.551235,-0.008 z m -21.331852,0.0253 c -4.89063,-0.0264 -9.95983,3.01378 -11.94989,8.33267 -2.67766,7.15668 1.76073,16.07114 8.6408,17.35502 5.181147,0.96685 10.620265,-1.91285 13.325017,-7.05461 0.993198,-1.88809 1.146346,-2.69715 1.147211,-6.06865 9.68e-4,-4.26656 -0.64693,-6.06258 -3.25676,-9.03502 -2.102033,-2.39408 -4.971992,-3.51355 -7.906378,-3.52941 z m -62.51067,0.005 c -3.45466,0.05 -7.15582,1.34931 -9.09073,3.55306 -1.0684,1.21684 -1.29325,1.84952 -1.29325,3.63831 0,2.61555 1.3311,4.28748 3.41377,4.28748 3.28887,0 4.90204,-4.24233 2.42358,-6.37423 -1.42672,-1.22721 -0.96725,-2.03524 1.54396,-2.71143 3.47658,-0.93615 5.15273,0.47266 5.15273,4.33136 0,3.38041 -0.65342,4.13809 -3.88396,4.50358 -6.30944,0.71383 -9.94786,3.60433 -9.94586,7.90131 0.001,3.28486 2.29954,6.04675 5.48196,6.5878 2.51104,0.42692 5.31483,-0.25634 7.17026,-1.7474 l 1.6554,-1.33039 1.00961,1.08896 c 1.52815,1.64889 4.21645,2.23019 6.63423,1.43423 1.68527,-0.5548 2.03919,-0.55912 2.56624,-0.0321 0.47608,0.47607 2.14103,0.61117 7.52397,0.61117 6.83432,0 8.58508,-0.30194 8.58508,-1.4815 0,-0.70865 -0.93999,-1.11176 -2.59325,-1.11176 -2.57575,0 -2.59366,-0.0416 -2.58566,-5.98929 0.0108,-7.88877 1.30912,-13.10605 3.43741,-13.81547 0.42979,-0.14326 0.48529,0.0192 0.21273,0.62045 -1.28334,2.83097 0.73618,6.12754 3.43656,5.61027 4.55985,-0.87346 4.18979,-7.85325 -0.4626,-8.72605 -1.91482,-0.35922 -4.7529,0.46101 -5.44819,1.57435 -0.72212,1.15629 -1.1835,1.0587 -1.1835,-0.24987 0,-0.60175 -0.29303,-1.20659 -0.65085,-1.3439 -0.35782,-0.13731 -2.83761,-0.0826 -5.51066,0.12156 -4.50609,0.34422 -4.86962,0.43907 -4.99234,1.3 -0.1157,0.81168 0.13744,0.96541 2.01163,1.22319 1.70107,0.23395 2.19618,0.48859 2.39571,1.23247 0.50827,1.89488 0.28807,17.38098 -0.25493,17.92398 -0.28526,0.28526 -1.2091,0.51886 -2.05299,0.51916 h -1.53468 v -4.21403 c 0,-3.92644 -0.0591,-4.21488 -0.86442,-4.21488 -0.77635,0 -0.88853,0.36647 -1.09825,3.59273 -0.16076,2.47306 -0.42833,3.71246 -0.86019,3.97936 -0.34501,0.2132 -0.75903,0.25026 -0.92014,0.0819 -0.16111,-0.1684 -0.35783,-4.09906 -0.43642,-8.7345 -0.1644,-9.69791 -0.45219,-10.63781 -3.83838,-12.52476 -1.24649,-0.6946 -2.81174,-1.05109 -4.46644,-1.10838 -0.22752,-0.008 -0.45683,-0.0101 -0.68714,-0.007 z m 83.997845,2.00487 c 0.957571,0.0188 1.970616,0.32256 2.886176,0.93955 1.660207,1.11881 2.843516,2.96442 3.677147,5.73436 0.679859,2.25902 0.903679,2.2091 -3.917732,0.86779 -6.000073,-1.66921 -7.338947,-2.81922 -6.273777,-5.39079 0.588836,-1.42158 2.032239,-2.18215 3.628186,-2.15091 z m -22.086525,0.092 c 0.54725,-0.006 1.09848,0.0926 1.61065,0.30474 2.004523,0.8303 2.730292,2.96694 2.941888,8.66021 0.23111,6.21848 -0.39608,9.60921 -2.09013,11.30326 -1.513978,1.51398 -4.172388,1.69495 -5.374748,0.36636 -2.51201,-2.77574 -2.64535,-16.07948 -0.19247,-19.19782 0.71491,-0.90886 1.90085,-1.42418 3.10481,-1.43675 z m -60.43236,10.89131 c 0.15045,2.9e-4 0.25724,0.0147 0.30727,0.0456 0.49848,0.30804 0.45897,4.38598 -0.0599,6.19526 -0.23303,0.81254 -0.95032,2.02716 -1.59377,2.69877 -1.31387,1.3714 -3.16771,1.61572 -4.06377,0.53605 -0.31252,-0.37658 -0.64529,-1.78666 -0.73949,-3.13352 -0.2371,-3.39045 1.00334,-5.25612 3.98696,-5.99774 0.86882,-0.21596 1.71138,-0.3453 2.16273,-0.34441 z m 77.434528,1.14383 c 0.160876,-0.003 0.621468,0.21589 1.110067,0.53604 0.558409,0.36588 2.373991,0.97983 4.035072,1.36416 4.094919,0.94748 5.653057,1.75618 6.27462,3.25676 0.674699,1.62886 -0.122764,3.75844 -1.620782,4.32799 -3.61579,1.37472 -7.200341,-1.3435 -9.162481,-6.9491 -0.457229,-1.30625 -0.765899,-2.44021 -0.6863,-2.51981 0.01,-0.01 0.02682,-0.0155 0.0498,-0.016 z"
                   id="path1144" />
                <path
                   id="path1204"
                   d="m -179.76827,448.62165 c -0.57359,-0.0496 -1.18479,0.5436 -2.53247,2.35773 l -0.78929,1.06195 -2.32565,-1.60221 c -2.30415,-1.58697 -2.36688,-1.60199 -6.64436,-1.59799 -5.29915,0.005 -7.74412,0.9737 -11.14119,4.41325 -5.15893,5.22351 -6.99168,12.13034 -5.24981,19.78874 1.57083,6.90643 6.98325,11.90406 14.01132,12.93923 8.60763,1.26785 14.66173,-3.10808 16.46613,-11.90092 0.59519,-2.90035 0.34831,-4.20432 -0.75637,-3.99033 -0.51733,0.10021 -0.979,1.19448 -1.625,3.8502 -1.07141,4.40464 -2.58358,6.87474 -5.10124,8.33436 -3.82486,2.21749 -8.239,1.86821 -10.88963,-0.86104 -2.33591,-2.40523 -3.32411,-5.84373 -3.58682,-12.48002 -0.36788,-9.29289 1.20355,-15.6143 4.36007,-17.53905 1.66071,-1.01265 5.80591,-1.12006 7.59151,-0.19669 2.55927,1.32345 4.78512,4.8989 6.33117,10.17209 0.74259,2.53276 1.12634,3.24157 1.75501,3.24157 0.75077,0 0.81208,-0.52457 0.92182,-7.838 0.10116,-6.74143 0.0247,-7.87341 -0.54955,-8.09378 -0.0824,-0.0316 -0.16371,-0.052 -0.24565,-0.0591 z m 58.05353,0.0523 c -1.06102,3.6e-4 -2.45091,0.0255 -3.91351,0.0751 -5.1431,0.1745 -5.31421,0.211 -5.1865,1.10669 0.10717,0.75175 0.47128,0.9512 1.93481,1.05773 0.99177,0.0722 2.01573,0.38657 2.275,0.69896 0.32591,0.39263 0.43642,5.35571 0.35792,16.07613 l -0.11396,15.50885 -1.80312,0.13169 c -2.26565,0.16492 -3.30388,1.19344 -2.09604,2.07663 v -8.5e-4 c 0.61693,0.45111 2.4568,0.60189 7.35683,0.60189 4.90003,0 6.73989,-0.15078 7.35682,-0.60189 1.15961,-0.84792 0.20511,-1.90144 -1.87909,-2.07494 l -1.58786,-0.13253 -0.11312,-17.13554 c -0.0868,-13.15838 -0.23723,-17.17739 -0.64831,-17.31451 -0.14721,-0.0491 -0.87885,-0.0738 -1.93987,-0.0734 z m 41.389023,11.56073 c -0.551493,0.0161 -1.105956,0.10253 -1.678183,0.25663 -2.270641,0.61142 -4.302847,2.35241 -5.294553,4.53565 -1.077781,2.37274 -1.010279,4.01833 0.26675,6.53546 1.270451,2.50417 1.237335,2.34254 0.480327,2.34254 -0.951049,0 -1.126949,1.0187 -1.126949,6.53209 0,4.39258 0.105804,5.20538 0.709937,5.43721 0.481739,0.18486 1.088335,-0.18921 1.883313,-1.16325 l 1.171691,-1.43675 1.547341,1.18013 c 0.850859,0.64898 2.094599,1.34396 2.76377,1.54481 4.058899,1.21832 8.380569,-0.60876 9.913781,-4.19209 1.282518,-2.99744 0.552025,-7.07037 -1.712795,-9.54572 -0.774483,-0.84648 -0.816122,-1.05358 -0.274353,-1.3878 0.483201,-0.29809 0.672417,-1.54476 0.783378,-5.16286 0.125941,-4.10712 0.04789,-4.8072 -0.562208,-5.04131 -0.434832,-0.16687 -1.127887,0.12235 -1.794676,0.74877 l -1.086434,1.02058 -1.592922,-0.91169 c -1.390682,-0.79608 -2.621797,-1.21597 -3.84598,-1.2848 -0.183628,-0.0103 -0.367403,-0.013 -0.551235,-0.008 z m -21.331853,0.0253 c -4.89063,-0.0264 -9.95983,3.01378 -11.94989,8.33267 -2.67766,7.15668 1.76073,16.07114 8.6408,17.35502 5.181148,0.96685 10.620266,-1.91285 13.325018,-7.05461 0.993198,-1.88809 1.146346,-2.69715 1.147211,-6.06865 9.68e-4,-4.26656 -0.64693,-6.06258 -3.25676,-9.03502 -2.102033,-2.39408 -4.971992,-3.51355 -7.906379,-3.52941 z m -62.51067,0.005 c -3.45466,0.05 -7.15582,1.34931 -9.09073,3.55306 -1.0684,1.21684 -1.29325,1.84952 -1.29325,3.63831 0,2.61555 1.3311,4.28748 3.41377,4.28748 3.28887,0 4.90204,-4.24233 2.42358,-6.37423 -1.42672,-1.22721 -0.96725,-2.03524 1.54396,-2.71143 3.47658,-0.93615 5.15273,0.47266 5.15273,4.33136 0,3.38041 -0.65342,4.13809 -3.88396,4.50358 -6.30944,0.71383 -9.94786,3.60433 -9.94586,7.90131 0.001,3.28486 2.29954,6.04675 5.48196,6.5878 2.51104,0.42692 5.31483,-0.25634 7.17026,-1.7474 l 1.6554,-1.33039 1.00961,1.08896 c 1.52815,1.64889 4.21645,2.23019 6.63423,1.43423 1.68527,-0.5548 2.03919,-0.55912 2.56624,-0.0321 0.47608,0.47607 2.14103,0.61117 7.52397,0.61117 6.83432,0 8.58508,-0.30194 8.58508,-1.4815 0,-0.70865 -0.93999,-1.11176 -2.59325,-1.11176 -2.57575,0 -2.59366,-0.0416 -2.58566,-5.98929 0.0108,-7.88877 1.30912,-13.10605 3.43741,-13.81547 0.42979,-0.14326 0.48529,0.0192 0.21273,0.62045 -1.28334,2.83097 0.73618,6.12754 3.43656,5.61027 4.55985,-0.87346 4.18979,-7.85325 -0.4626,-8.72605 -1.91482,-0.35922 -4.7529,0.46101 -5.44819,1.57435 -0.72212,1.15629 -1.1835,1.0587 -1.1835,-0.24987 0,-0.60175 -0.29303,-1.20659 -0.65085,-1.3439 -0.35782,-0.13731 -2.83761,-0.0826 -5.51066,0.12156 -4.50609,0.34422 -4.86962,0.43907 -4.99234,1.3 -0.1157,0.81168 0.13744,0.96541 2.01163,1.22319 1.70107,0.23395 2.19618,0.48859 2.39571,1.23247 0.50827,1.89488 0.28807,17.38098 -0.25493,17.92398 -0.28526,0.28526 -1.2091,0.51886 -2.05299,0.51916 h -1.53468 v -4.21403 c 0,-3.92644 -0.0591,-4.21488 -0.86442,-4.21488 -0.77635,0 -0.88853,0.36647 -1.09825,3.59273 -0.16076,2.47306 -0.42833,3.71246 -0.86019,3.97936 -0.34501,0.2132 -0.75903,0.25026 -0.92014,0.0819 -0.16111,-0.1684 -0.35783,-4.09906 -0.43642,-8.7345 -0.1644,-9.69791 -0.45219,-10.63781 -3.83838,-12.52476 -1.24649,-0.6946 -2.81174,-1.05109 -4.46644,-1.10838 -0.22752,-0.008 -0.45683,-0.0101 -0.68714,-0.007 z m 83.997846,2.00487 c 0.957571,0.0188 1.970616,0.32256 2.886176,0.93955 1.660207,1.11881 2.843516,2.96442 3.677147,5.73436 0.679859,2.25902 0.903679,2.2091 -3.917732,0.86779 -6.000073,-1.66921 -7.338947,-2.81922 -6.273777,-5.39079 0.588836,-1.42158 2.032239,-2.18215 3.628186,-2.15091 z m -22.086526,0.092 c 0.54725,-0.006 1.09848,0.0926 1.61065,0.30474 2.004524,0.8303 2.730293,2.96694 2.941889,8.66021 0.23111,6.21848 -0.39608,9.60921 -2.09013,11.30326 -1.513979,1.51398 -4.172389,1.69495 -5.374749,0.36636 -2.51201,-2.77574 -2.64535,-16.07948 -0.19247,-19.19782 0.71491,-0.90886 1.90085,-1.42418 3.10481,-1.43675 z m -60.43236,10.89131 c 0.15045,2.9e-4 0.25724,0.0147 0.30727,0.0456 0.49848,0.30804 0.45897,4.38598 -0.0599,6.19526 -0.23303,0.81254 -0.95032,2.02716 -1.59377,2.69877 -1.31387,1.3714 -3.16771,1.61572 -4.06377,0.53605 -0.31252,-0.37658 -0.64529,-1.78666 -0.73949,-3.13352 -0.2371,-3.39045 1.00334,-5.25612 3.98696,-5.99774 0.86882,-0.21596 1.71138,-0.3453 2.16273,-0.34441 z m 77.434529,1.14383 c 0.160876,-0.003 0.621468,0.21589 1.110067,0.53604 0.558409,0.36588 2.373991,0.97983 4.035072,1.36416 4.094919,0.94748 5.653057,1.75618 6.27462,3.25676 0.674699,1.62886 -0.122764,3.75844 -1.620782,4.32799 -3.61579,1.37472 -7.200341,-1.3435 -9.162481,-6.9491 -0.457229,-1.30625 -0.765899,-2.44021 -0.6863,-2.51981 0.01,-0.01 0.02682,-0.0155 0.0498,-0.016 z"
                   style="fill:#ec0e18;fill-opacity:1;stroke:none;stroke-width:0.2118094" />
              </g>
            </g>
          </g>
        </g>
      </g>
    </g>
  </g>
</svg>
