<?xml version="1.0" encoding="UTF-8" standalone="no"?>
<svg
   xmlns:dc="http://purl.org/dc/elements/1.1/"
   xmlns:cc="http://creativecommons.org/ns#"
   xmlns:rdf="http://www.w3.org/1999/02/22-rdf-syntax-ns#"
   xmlns:svg="http://www.w3.org/2000/svg"
   xmlns="http://www.w3.org/2000/svg"
   xmlns:sodipodi="http://sodipodi.sourceforge.net/DTD/sodipodi-0.dtd"
   xmlns:inkscape="http://www.inkscape.org/namespaces/inkscape"
   id="svg1783"
   version="1.1"
   viewBox="0 0 161.442 48.166"
   height="48.166mm"
   width="161.442mm"
   sodipodi:docname="logo.svg"
   inkscape:version="0.92.3 (2405546, 2018-03-11)">
  <sodipodi:namedview
     pagecolor="#ffffff"
     bordercolor="#666666"
     borderopacity="1"
     objecttolerance="10"
     gridtolerance="10"
     guidetolerance="10"
     inkscape:pageopacity="0"
     inkscape:pageshadow="2"
     inkscape:window-width="1366"
     inkscape:window-height="689"
     id="namedview830"
     showgrid="false"
     inkscape:zoom="0.756341"
     inkscape:cx="422.15285"
     inkscape:cy="206.49642"
     inkscape:window-x="0"
     inkscape:window-y="0"
     inkscape:window-maximized="1"
     inkscape:current-layer="flowRoot829" />
  <defs
     id="defs1777" />
  <metadata
     id="metadata1780">
    <rdf:RDF>
      <cc:Work
         rdf:about="">
        <dc:format>image/svg+xml</dc:format>
        <dc:type
           rdf:resource="http://purl.org/dc/dcmitype/StillImage" />
        <dc:title />
      </cc:Work>
    </rdf:RDF>
  </metadata>
  <g
     transform="translate(0,-248.834)"
     id="layer1">
    <g
       transform="translate(-49.622046,90.5015)"
       id="g2376">
      <g
         id="g1707"
         transform="matrix(1.4126079,0,0,1.4126079,378.27434,21.663725)">
        <g
           transform="translate(-8.7380624,-23.104317)"
           id="g1771">
          <g
             transform="translate(15.639393,6.1932297)"
             id="g2664">
            <g
               id="g1760"
               transform="translate(-33.185188,-6.0909129)">
              <g
                 id="g1334"
                 transform="matrix(0.4333588,0,0,0.4333588,-88.959031,-74.661569)"
                 style="font-style:normal;font-variant:normal;font-weight:normal;font-stretch:normal;font-size:medium;line-height:1.25;font-family:coffekan;-inkscape-font-specification:coffekan;letter-spacing:0px;word-spacing:0px;fill:#ec0e18;fill-opacity:1;stroke:#000000;stroke-width:0.4900631;stroke-miterlimit:4;stroke-dasharray:none;stroke-opacity:1">
                <g
                   aria-label="Carlos
Nascimento "
                   transform="matrix(1.4530082,0,0,1.4530082,-712.14458,470.52617)"
                   style="font-style:normal;font-variant:normal;font-weight:normal;font-stretch:normal;font-size:24px;line-height:1.25;font-family:'Modern Twenty CG';-inkscape-font-specification:'Modern Twenty CG';text-align:center;letter-spacing:0px;word-spacing:0px;text-anchor:middle;fill:#000000;fill-opacity:1;stroke:none"
                   id="flowRoot829">
                  <g
                     id="g943"
                     transform="translate(-8.6155252e-6,-0.04276468)"
                     style="fill:#ec0e18;fill-opacity:1">
                    <g
                       transform="matrix(1.5551478,0,0,1.5551478,-229.08647,2.5078844)"
                       id="g911"
                       style="fill:#ec0e18;fill-opacity:1">
                      <path
                         inkscape:connector-curvature="0"
                         d="m 383.92142,-0.78809969 c 0.024,-0.144 -0.024,-0.40800001 -0.192,-0.40800001 -0.168,0 -0.216,0.24000001 -0.216,0.38400001 -0.168,2.66399999 -1.512,5.73599999 -5.04,5.73599999 -3.096,0 -4.368,-3.048 -4.368,-7.296 0,-3.768 0.48,-7.8240003 3.912,-7.8240003 3.408,0 4.608,4.2000003 4.944,5.7600003 0.072,0.336 0.072,0.672 0.192,0.672 0.192,0 0.216,-0.144 0.216,-0.408 V -10.2921 c 0,-0.144 -0.048,-0.288 -0.216,-0.288 -0.12,0 -0.192,0.168 -0.24,0.288 -0.288,0.5520003 -0.768,1.4880003 -1.104,1.4880003 -0.144,0 -0.336,-0.12 -0.456,-0.24 -0.912,-0.816 -1.872,-1.4640003 -3.24,-1.4640003 -4.08,0 -7.296,3.8160003 -7.296,8.0640003 0,4.992 3.216,7.824 7.368,7.824 3.768,0 5.4,-2.784 5.736,-6.16799999 z"
                         id="path872"
                         style="fill:#ec0e18;fill-opacity:1" />
                      <path
                         inkscape:connector-curvature="0"
                         d="m 386.9773,-0.90809969 c 0.768,0 1.296,-0.57600001 1.296,-1.29600001 0,-0.72 -0.36,-0.984 -0.768,-1.2 -0.192,-0.096 -0.456,-0.168 -0.456,-0.336 0,-0.456 1.2,-1.248 2.328,-1.248 0.864,0 1.776,0.192 1.776,1.632 0,0.6 0,1.08 0,1.68 0,0.84000001 -0.576,1.12800001 -1.248,1.20000001 -1.296,0.144 -1.872,0.168 -2.928,0.624 -1.104,0.48 -1.776,1.41599999 -1.776,2.51999999 0,1.704 1.152,2.712 2.784,2.712 1.32,0 2.208,-0.504 2.976,-1.512 0.024,-0.048 0.096,-0.144 0.192,-0.144 0.096,0 0.144,0.072 0.168,0.144 0.384,0.888 1.128,1.344 2.064,1.344 1.464,0 2.16,-0.552 2.16,-2.544 0,-0.552 0,-0.984 0,-1.488 0,-0.21599999 -0.048,-0.28799999 -0.216,-0.28799999 -0.144,0 -0.192,0.072 -0.192,0.28799999 0,0.504 0,0.912 0,1.464 0,1.464 -0.336,1.896 -0.864,1.896 -0.552,0 -0.768,-0.384 -0.768,-0.984 0,-2.064 0,-4.05599999 0,-6.144 0,-1.536 -1.128,-2.712 -3.528,-2.712 -2.016,0 -4.296,1.008 -4.296,2.904 0,0.768 0.456,1.48800001 1.296,1.48800001 z m 2.208,0.864 c 0.36,-0.072 0.84,-0.144 1.176,-0.216 0.264,-0.048 0.456,-0.144 0.528,-0.168 0.192,-0.072 0.264,0.096 0.264,0.432 0,0.768 0,1.39199999 0,2.20799999 0,1.08 -0.96,2.64 -2.304,2.64 -0.84,0 -1.272,-0.888 -1.272,-2.232 0,-1.296 0.6,-2.49599999 1.608,-2.66399999 z"
                         id="path874"
                         style="fill:#ec0e18;fill-opacity:1" />
                      <path
                         inkscape:connector-curvature="0"
                         d="m 402.14942,-4.5800997 c 0.216,0 0.432,0.048 0.432,0.168 0,0.552 -0.6,0.48 -0.6,1.488 0,0.672 0.504,1.248 1.176,1.248 0.816,0 1.416,-0.696 1.416,-1.512 0,-1.056 -0.6,-1.776 -2.016,-1.776 -1.368,0 -1.992,1.152 -2.448,2.136 h -0.072 c 0,-0.984 0,-1.824 0,-1.848 0,-0.288 -0.096,-0.408 -0.36,-0.384 -1.44,0.168 -2.64,0.288 -3.888,0.288 -0.12,0 -0.216,0.072 -0.216,0.192 0,0.12 0.144,0.192 0.216,0.192 1.728,-0.048 1.968,0.216 1.968,1.224 v 6.984 c 0,0.936 -0.36,0.984 -1.944,0.984 -0.12,0 -0.216,0.096 -0.216,0.192 0,0.12 0.072,0.216 0.192,0.216 0.24,0 6.192,0 6.36,0 0.096,0 0.216,-0.072 0.216,-0.216 0,-0.12 -0.12,-0.192 -0.216,-0.192 -1.416,0 -2.112,-0.12 -2.112,-0.6 V 0.69990031 c 0,-3.36000001 0.912,-5.28000001 2.112,-5.28000001 z"
                         id="path876"
                         style="fill:#ec0e18;fill-opacity:1" />
                      <path
                         inkscape:connector-curvature="0"
                         d="m 409.17467,-10.2201 c 0,-0.288 -0.096,-0.408 -0.36,-0.384 -1.44,0.168 -2.76,0.288 -4.008,0.288 -0.12,0 -0.216,0.072 -0.216,0.192 0,0.12 0.144,0.1920003 0.216,0.1920003 1.728,-0.048 2.088,0.36 2.088,1.224 v 12.528 c 0,0.936 -0.36,0.984 -1.944,0.984 -0.12,0 -0.216,0.096 -0.216,0.192 0,0.12 0.072,0.216 0.192,0.216 0.24,0 5.808,0 5.976,0 0.096,0 0.216,-0.072 0.216,-0.216 0,-0.12 -0.12,-0.192 -0.216,-0.192 -1.008,0 -1.728,-0.12 -1.728,-0.6 0,0 0,-14.3280003 0,-14.4240003 z"
                         id="path878"
                         style="fill:#ec0e18;fill-opacity:1" />
                      <path
                         inkscape:connector-curvature="0"
                         d="m 416.57717,5.3799003 c 2.928,0 5.208,-2.568 5.208,-5.42399999 0,-3.04800001 -2.04,-5.25600001 -4.776,-5.25600001 -2.76,0 -5.136,2.328 -5.136,5.30400001 0,2.87999999 2.088,5.37599999 4.704,5.37599999 z m 2.664,-5.42399999 c 0,3.07199999 -0.648,5.08799999 -2.592,5.08799999 -1.728,0 -2.232,-2.208 -2.232,-5.03999999 0,-3.31200001 0.6,-5.01600001 2.52,-5.01600001 1.872,0 2.304,1.992 2.304,4.96800001 z"
                         id="path880"
                         style="fill:#ec0e18;fill-opacity:1" />
                      <path
                         inkscape:connector-curvature="0"
                         d="m 424.85117,0.50790031 c 0.672,0.432 1.536,0.52799999 2.28,0.69599999 1.368,0.288 2.52,0.792 2.52,2.088 0,1.032 -0.624,1.848 -1.92,1.848 -2.208,0 -3.288,-2.352 -3.792,-4.31999999 -0.024,-0.072 -0.096,-0.264 -0.216,-0.264 -0.12,0 -0.192,0.12 -0.192,0.24 0,1.31999999 0,2.83199999 0,4.43999999 0,0.072 0.048,0.144 0.12,0.144 0.072,0 0.144,-0.048 0.168,-0.096 0.264,-0.384 0.432,-0.672 0.696,-1.008 0.048,-0.048 0.144,-0.24 0.264,-0.24 0.12,0 0.288,0.144 0.36,0.216 0.792,0.744 1.536,1.2 2.664,1.2 2.112,0 3.216,-1.44 3.216,-3.216 0,-1.27199999 -0.648,-2.44799999 -1.656,-2.85599999 -0.696,-0.288 -1.176,-0.43200001 -1.968,-0.57600001 -1.392,-0.264 -2.976,-0.696 -2.976,-2.064 0,-0.936 0.792,-1.776 2.016,-1.776 1.896,0 3,1.872 3.312,3.744 0.024,0.096 0.048,0.24 0.168,0.24 0.12,0 0.192,-0.144 0.192,-0.24 0,-1.248 0.12,-2.376 0.12,-3.768 0,-0.048 -0.048,-0.144 -0.12,-0.168 -0.096,-0.024 -0.168,0.048 -0.216,0.12 -0.144,0.216 -0.336,0.432 -0.576,0.72 -0.072,0.096 -0.168,0.216 -0.288,0.216 -0.072,0 -0.216,-0.12 -0.264,-0.168 -0.696,-0.552 -1.44,-0.96 -2.28,-0.96 -1.824,0 -3.144,1.416 -3.144,3.12 0,1.128 0.648,2.13600001 1.512,2.68800001 z"
                         id="path882"
                         style="fill:#ec0e18;fill-opacity:1" />
                    </g>
                    <g
                       transform="matrix(1.5551478,0,0,1.5551478,-228.17847,-17.063843)"
                       id="g923"
                       style="fill:#ec0e18;fill-opacity:1">
                      <path
                         inkscape:connector-curvature="0"
                         d="m 348.46555,19.8999 c -0.144,-0.168 -0.216,-0.216 -0.528,-0.216 -2.064,0 -4.272,0 -4.368,0 -0.144,0 -0.264,0.072 -0.264,0.192 0,0.144 0.192,0.216 0.288,0.216 1.608,0 2.808,1.08 2.808,2.904 v 8.16 c 0,3.312 -1.32,3.648 -2.736,3.648 -0.096,0 -0.216,0.096 -0.216,0.192 0,0.12 0.144,0.216 0.24,0.216 0.144,0 4.32,0 6.336,0 0.096,0 0.24,-0.072 0.24,-0.216 0,-0.12 -0.168,-0.192 -0.24,-0.192 -1.776,0 -3.192,-0.6 -3.192,-3.624 v -8.448 h 0.144 c 3.264,3.96 9.624,12.048 9.624,12.048 0.216,0.288 0.384,0.744 0.744,0.648 0.336,-0.096 0.312,-0.552 0.312,-0.864 l -0.216,-11.4 c -0.048,-2.808 1.224,-3.072 2.64,-3.072 0.096,0 0.24,-0.096 0.24,-0.192 0,-0.12 -0.144,-0.216 -0.24,-0.216 -0.144,0 -4.08,0 -6.096,0 -0.096,0 -0.24,0.072 -0.24,0.216 0,0.12 0.168,0.192 0.24,0.192 1.92,0 3.072,0.264 3.072,3.048 l 0.072,7.392 -0.168,0.024 c -3.312,-4.08 -5.544,-7.032 -8.496,-10.656 z"
                         id="path884"
                         style="fill:#ec0e18;fill-opacity:1" />
                      <path
                         inkscape:connector-curvature="0"
                         d="m 362.7898,29.0919 c 0.768,0 1.296,-0.576 1.296,-1.296 0,-0.72 -0.36,-0.984 -0.768,-1.2 -0.192,-0.096 -0.456,-0.168 -0.456,-0.336 0,-0.456 1.2,-1.248 2.328,-1.248 0.864,0 1.776,0.192 1.776,1.632 0,0.6 0,1.08 0,1.68 0,0.84 -0.576,1.128 -1.248,1.2 -1.296,0.144 -1.872,0.168 -2.928,0.624 -1.104,0.48 -1.776,1.416 -1.776,2.52 0,1.704 1.152,2.712 2.784,2.712 1.32,0 2.208,-0.504 2.976,-1.512 0.024,-0.048 0.096,-0.144 0.192,-0.144 0.096,0 0.144,0.072 0.168,0.144 0.384,0.888 1.128,1.344 2.064,1.344 1.464,0 2.16,-0.552 2.16,-2.544 0,-0.552 0,-0.984 0,-1.488 0,-0.216 -0.048,-0.288 -0.216,-0.288 -0.144,0 -0.192,0.072 -0.192,0.288 0,0.504 0,0.912 0,1.464 0,1.464 -0.336,1.896 -0.864,1.896 -0.552,0 -0.768,-0.384 -0.768,-0.984 0,-2.064 0,-4.056 0,-6.144 0,-1.536 -1.128,-2.712 -3.528,-2.712 -2.016,0 -4.296,1.008 -4.296,2.904 0,0.768 0.456,1.488 1.296,1.488 z m 2.208,0.864 c 0.36,-0.072 0.84,-0.144 1.176,-0.216 0.264,-0.048 0.456,-0.144 0.528,-0.168 0.192,-0.072 0.264,0.096 0.264,0.432 0,0.768 0,1.392 0,2.208 0,1.08 -0.96,2.64 -2.304,2.64 -0.84,0 -1.272,-0.888 -1.272,-2.232 0,-1.296 0.6,-2.496 1.608,-2.664 z"
                         id="path886"
                         style="fill:#ec0e18;fill-opacity:1" />
                      <path
                         inkscape:connector-curvature="0"
                         d="m 373.56992,30.5079 c 0.672,0.432 1.536,0.528 2.28,0.696 1.368,0.288 2.52,0.792 2.52,2.088 0,1.032 -0.624,1.848 -1.92,1.848 -2.208,0 -3.288,-2.352 -3.792,-4.32 -0.024,-0.072 -0.096,-0.264 -0.216,-0.264 -0.12,0 -0.192,0.12 -0.192,0.24 0,1.32 0,2.832 0,4.44 0,0.072 0.048,0.144 0.12,0.144 0.072,0 0.144,-0.048 0.168,-0.096 0.264,-0.384 0.432,-0.672 0.696,-1.008 0.048,-0.048 0.144,-0.24 0.264,-0.24 0.12,0 0.288,0.144 0.36,0.216 0.792,0.744 1.536,1.2 2.664,1.2 2.112,0 3.216,-1.44 3.216,-3.216 0,-1.272 -0.648,-2.448 -1.656,-2.856 -0.696,-0.288 -1.176,-0.432 -1.968,-0.576 -1.392,-0.264 -2.976,-0.696 -2.976,-2.064 0,-0.936 0.792,-1.776 2.016,-1.776 1.896,0 3,1.872 3.312,3.744 0.024,0.096 0.048,0.24 0.168,0.24 0.12,0 0.192,-0.144 0.192,-0.24 0,-1.248 0.12,-2.376 0.12,-3.768 0,-0.048 -0.048,-0.144 -0.12,-0.168 -0.096,-0.024 -0.168,0.048 -0.216,0.12 -0.144,0.216 -0.336,0.432 -0.576,0.72 -0.072,0.096 -0.168,0.216 -0.288,0.216 -0.072,0 -0.216,-0.12 -0.264,-0.168 -0.696,-0.552 -1.44,-0.96 -2.28,-0.96 -1.824,0 -3.144,1.416 -3.144,3.12 0,1.128 0.648,2.136 1.512,2.688 z"
                         id="path888"
                         style="fill:#ec0e18;fill-opacity:1" />
                      <path
                         inkscape:connector-curvature="0"
                         d="m 389.65217,31.0839 c 0,-0.048 -0.096,-0.192 -0.192,-0.192 -0.096,0 -0.144,0.12 -0.144,0.192 0,1.896 -1.104,3.696 -3.168,3.696 -1.824,0 -2.832,-1.2 -2.832,-4.776 0,-3.864 1.32,-5.016 2.736,-5.016 1.32,0 1.872,0.96 1.872,1.248 0,0.192 -0.216,0.312 -0.384,0.384 -0.384,0.168 -0.72,0.624 -0.72,1.152 0,0.696 0.552,1.272 1.224,1.272 0.84,0 1.392,-0.768 1.392,-1.632 0,-1.392 -1.632,-2.712 -3.528,-2.712 -2.784,0 -5.16,2.568 -5.16,5.448 0,3 2.112,5.232 4.728,5.232 2.784,0 4.128,-1.944 4.176,-4.296 z"
                         id="path890"
                         style="fill:#ec0e18;fill-opacity:1" />
                      <path
                         inkscape:connector-curvature="0"
                         d="m 394.92805,25.3239 c 0,-0.288 -0.096,-0.408 -0.36,-0.384 -1.44,0.168 -2.64,0.288 -3.888,0.288 -0.12,0 -0.216,0.072 -0.216,0.192 0,0.12 0.144,0.192 0.216,0.192 1.728,-0.048 1.968,0.216 1.968,1.224 v 6.984 c 0,0.936 -0.36,0.984 -1.944,0.984 -0.12,0 -0.216,0.096 -0.216,0.192 0,0.12 0.072,0.216 0.192,0.216 0.24,0 5.808,0 5.976,0 0.096,0 0.216,-0.072 0.216,-0.216 0,-0.12 -0.12,-0.192 -0.216,-0.192 -1.008,0 -1.728,-0.12 -1.728,-0.6 0,0 0,-8.784 0,-8.88 z m -1.032,-3.192 c 0.792,0 1.272,-0.552 1.272,-1.416 0,-0.792 -0.504,-1.368 -1.224,-1.368 -0.864,0 -1.416,0.624 -1.416,1.392 0,0.84 0.552,1.392 1.368,1.392 z"
                         id="path892"
                         style="fill:#ec0e18;fill-opacity:1" />
                      <path
                         inkscape:connector-curvature="0"
                         d="m 407.84492,27.2919 c -0.24,-1.44 -1.488,-2.376 -2.856,-2.376 -1.392,0 -2.544,0.84 -3.096,2.4 h -0.096 c -0.048,-0.648 -0.072,-1.56 -0.096,-2.112 0,-0.192 -0.072,-0.288 -0.336,-0.264 -1.44,0.168 -2.64,0.288 -3.888,0.288 -0.12,0 -0.216,0.072 -0.216,0.192 0,0.12 0.144,0.192 0.216,0.192 1.728,-0.048 1.968,0.336 1.968,1.224 v 6.984 c 0,0.936 -0.36,0.984 -1.944,0.984 -0.12,0 -0.216,0.096 -0.216,0.192 0,0.12 0.072,0.216 0.192,0.216 0.24,0 5.52,0 5.688,0 0.096,0 0.216,-0.072 0.216,-0.216 0,-0.12 -0.12,-0.192 -0.216,-0.192 -1.008,0 -1.44,-0.12 -1.44,-0.6 v -2.136 c 0,-2.616 0.36,-6.624 2.544,-6.624 0.672,0 1.104,0.384 1.104,1.608 v 7.152 c 0,0.48 -0.312,0.6 -1.512,0.6 -0.12,0 -0.216,0.072 -0.216,0.192 0,0.12 0.096,0.216 0.216,0.216 0.168,0 4.416,0 5.304,0 0.12,0 0.24,-0.096 0.24,-0.216 0,-0.12 -0.12,-0.192 -0.24,-0.192 -1.008,0 -1.44,-0.096 -1.44,-0.6 v -2.136 c 0,-2.616 0.36,-6.624 2.544,-6.624 0.672,0 1.104,0.384 1.104,1.608 v 7.152 c 0,0.48 -0.312,0.6 -1.512,0.6 -0.12,0 -0.216,0.072 -0.216,0.192 0,0.12 0.096,0.216 0.216,0.216 0.168,0 4.56,0 5.448,0 0.12,0 0.24,-0.096 0.24,-0.216 0,-0.12 -0.12,-0.192 -0.24,-0.192 -1.008,0 -1.584,-0.096 -1.584,-0.6 l 0.12,-6.24 c 0.024,-1.704 -1.224,-3.048 -2.856,-3.048 -1.392,0 -2.496,0.84 -3.048,2.4 0,0 -0.096,0 -0.096,-0.024 z"
                         id="path894"
                         style="fill:#ec0e18;fill-opacity:1" />
                      <path
                         inkscape:connector-curvature="0"
                         d="m 425.49092,31.6359 c 0.024,-0.144 -0.048,-0.336 -0.192,-0.336 -0.144,0 -0.264,0.12 -0.288,0.264 -0.312,2.496 -1.848,3.288 -3.312,3.288 -1.464,0 -2.592,-0.768 -2.592,-3.984 0,0 0,-0.408 0,-0.84 0.432,0 6.168,0 6.168,0 0.192,0 0.24,-0.096 0.24,-0.288 0,-2.808 -1.512,-5.04 -4.056,-5.04 -2.76,0 -4.992,2.76 -4.992,5.736 0,3.192 2.304,4.944 4.92,4.944 2.256,0 3.84,-1.536 4.104,-3.744 z m -2.232,-2.568 c 0,0.312 -0.096,0.456 -0.36,0.456 -1.152,0 -2.064,0 -3.336,0 -0.384,0 -0.456,-0.12 -0.456,-0.384 0,-2.544 0.888,-4.152 2.304,-4.152 1.368,0 1.848,1.584 1.848,4.08 z"
                         id="path896"
                         style="fill:#ec0e18;fill-opacity:1" />
                      <path
                         inkscape:connector-curvature="0"
                         d="m 428.60117,26.8359 v 6.984 c 0,0.936 -0.36,0.984 -1.944,0.984 -0.12,0 -0.216,0.096 -0.216,0.192 0,0.12 0.072,0.216 0.192,0.216 0.24,0 5.592,0 5.76,0 0.096,0 0.216,-0.072 0.216,-0.216 0,-0.12 -0.12,-0.192 -0.216,-0.192 -1.008,0 -1.512,-0.12 -1.512,-0.6 v -2.568 c 0,-2.616 0.264,-6.288 2.448,-6.288 0.672,0 1.392,0.48 1.392,1.704 v 7.152 c 0,0.48 -0.384,0.6 -1.584,0.6 -0.12,0 -0.216,0.072 -0.216,0.192 0,0.12 0.096,0.216 0.216,0.216 0.168,0 4.752,0 5.64,0 0.12,0 0.24,-0.096 0.24,-0.216 0,-0.12 -0.12,-0.192 -0.24,-0.192 -1.176,0 -1.704,-0.096 -1.704,-0.6 l 0.12,-6.24 c 0.024,-1.704 -1.416,-3.048 -3.048,-3.048 -1.392,0 -2.496,0.624 -3.096,2.112 h -0.096 c -0.048,-0.648 -0.072,-1.272 -0.096,-1.824 0,-0.192 -0.072,-0.288 -0.336,-0.264 -1.44,0.168 -2.64,0.288 -3.888,0.288 -0.12,0 -0.216,0.072 -0.216,0.192 0,0.12 0.144,0.192 0.216,0.192 1.728,-0.048 1.968,0.336 1.968,1.224 z"
                         id="path898"
                         style="fill:#ec0e18;fill-opacity:1" />
                      <path
                         inkscape:connector-curvature="0"
                         d="m 440.60267,25.7559 c 0.408,0 0.504,0.072 0.504,0.408 0,1.176 -0.144,4.104 -0.144,6.12 0,2.04 0.912,3.096 2.736,3.096 2.112,0 2.64,-1.128 2.64,-3.288 0,-0.672 0,-1.32 0,-1.944 0,-0.144 -0.072,-0.288 -0.192,-0.288 -0.144,0 -0.216,0.144 -0.216,0.288 0,0.6 0,1.272 0,1.944 0,1.44 -0.456,2.664 -1.512,2.664 -0.912,0 -1.2,-0.696 -1.2,-1.992 0,-2.544 0,-6.84 0,-7.08 0,0 1.728,0 2.496,0 0.192,0 0.432,-0.192 0.432,-0.408 0,-0.24 -0.264,-0.36 -0.48,-0.36 -0.672,0 -1.416,0 -2.064,0 -0.312,0 -0.384,-0.096 -0.384,-0.384 0,-1.512 0,-2.856 0,-4.008 0,-0.144 -0.048,-0.312 -0.192,-0.312 -0.168,0 -0.264,0.168 -0.264,0.312 -0.144,1.848 -0.912,4.2 -3.336,4.776 -0.12,0.024 -0.288,0.072 -0.288,0.216 0,0.144 0.168,0.24 0.312,0.24 0.408,0 0.768,0 1.152,0 z"
                         id="path900"
                         style="fill:#ec0e18;fill-opacity:1" />
                      <path
                         inkscape:connector-curvature="0"
                         d="m 452.1553,35.3799 c 2.928,0 5.208,-2.568 5.208,-5.424 0,-3.048 -2.04,-5.256 -4.776,-5.256 -2.76,0 -5.136,2.328 -5.136,5.304 0,2.88 2.088,5.376 4.704,5.376 z m 2.664,-5.424 c 0,3.072 -0.648,5.088 -2.592,5.088 -1.728,0 -2.232,-2.208 -2.232,-5.04 0,-3.312 0.6,-5.016 2.52,-5.016 1.872,0 2.304,1.992 2.304,4.968 z"
                         id="path902"
                         style="fill:#ec0e18;fill-opacity:1" />
                    </g>
                  </g>
                </g>
              </g>
            </g>
          </g>
        </g>
      </g>
    </g>
  </g>
</svg>
